<?xml version="1.0" encoding="UTF-8"?>
<svg id="Layer_2" data-name="Layer 2" xmlns="http://www.w3.org/2000/svg" viewBox="0 0 99.77 32.14">
  <defs>
    <style>
      .cls-1, .cls-2 {
        fill: #fff;
      }

      .cls-2 {
        font-family: SegoeUI-Bold, 'Segoe UI';
        font-size: 15.02px;
        font-weight: 700;
      }

      .cls-3 {
        fill: #111519;
      }

      .cls-4 {
        fill: #03979c;
      }

      .cls-5 {
        letter-spacing: 0em;
      }
    </style>
  </defs>
  <g id="Layer_1-2" data-name="Layer 1">
    <g>
      <path class="cls-3" d="M94.77,0H30.77V32H94.77c2.76,0,5-2.24,5-5V5c0-2.76-2.24-5-5-5Z"/>
      <path class="cls-4" d="M31,.14H5C2.24,.14,0,2.38,0,5.14V27.14c0,2.76,2.24,5,5,5H31V.14Z"/>
      <text class="cls-2" transform="translate(36.8 21.47)"><tspan x="0" y="0">A</tspan><tspan class="cls-5" x="10.56" y="0">r</tspan><tspan x="16.48" y="0">duino</tspan></text>
      <g>
        <path class="cls-1" d="M21.39,21.66c-.29,0-.59-.02-.88-.06-2.45-.35-4.09-2.11-5.01-3.47-.92,1.35-2.56,3.12-5.01,3.47-.29,.04-.59,.06-.88,.06-1.52,0-2.96-.57-4.03-1.6-1.09-1.04-1.69-2.43-1.69-3.92s.6-2.88,1.69-3.92c1.08-1.03,2.51-1.6,4.03-1.6,.29,0,.59,.02,.88,.06,2.45,.35,4.09,2.11,5.01,3.47,.92-1.35,2.56-3.12,5.01-3.47,.29-.04,.59-.06,.88-.06,1.52,0,2.96,.57,4.03,1.6,1.09,1.04,1.69,2.43,1.69,3.92s-.6,2.88-1.68,3.92c-1.08,1.03-2.51,1.6-4.03,1.6m-4.81-5.52c.48,.91,1.89,3.19,4.2,3.52,.2,.03,.41,.04,.6,.04,2.07,0,3.76-1.6,3.76-3.56s-1.69-3.56-3.76-3.56c-.2,0-.4,.01-.6,.04-2.31,.33-3.72,2.61-4.2,3.52m-6.98-3.56c-2.08,0-3.77,1.6-3.77,3.56s1.69,3.56,3.76,3.56c.2,0,.4-.02,.6-.04,2.31-.33,3.72-2.61,4.2-3.52-.48-.91-1.89-3.19-4.2-3.52-.2-.03-.4-.04-.6-.04"/>
        <path class="cls-1" d="M8.04,15.6h3.43v1.11h-3.43v-1.11Zm14.9,0h-1.16v-1.16h-1.11v1.16h-1.16v1.11h1.16v1.16h1.11v-1.16h1.16v-1.11Z"/>
      </g>
    </g>
  </g>
</svg>