<?xml version="1.0" encoding="UTF-8"?>
<svg id="Layer_2" data-name="Layer 2" xmlns="http://www.w3.org/2000/svg" viewBox="0 0 90 32">
  <defs>
    <style>
      .cls-1 {
        fill: #3e474a;
      }

      .cls-1, .cls-2, .cls-3 {
        fill-rule: evenodd;
      }

      .cls-4, .cls-2, .cls-5 {
        fill: #fff;
      }

      .cls-6 {
        fill: #111519;
      }

      .cls-5 {
        stroke: #1c2125;
      }

      .cls-3 {
        fill: #47b352;
      }
    </style>
  </defs>
  <g id="Layer_1-2" data-name="Layer 1">
    <g>
      <path class="cls-6" d="M85,0H31V32h54c2.76,0,5-2.24,5-5V5c0-2.76-2.24-5-5-5Z"/>
      <path class="cls-5" d="M5,.5H30.5V31.5H5c-2.49,0-4.5-2.01-4.5-4.5V5C.5,2.51,2.51,.5,5,.5Z"/>
      <path class="cls-2" d="M24.64,9.04l-7.58-4.5c-.9-.54-2.02-.54-2.92,0l-7.58,4.5c-.9,.54-1.46,1.53-1.46,2.6v9c0,1.07,.56,2.07,1.46,2.6l7.58,4.5c.45,.27,.96,.4,1.46,.4s1.01-.13,1.46-.4l7.58-4.5c.9-.54,1.46-1.53,1.46-2.6V11.64c0-1.07-.56-2.07-1.46-2.6Z"/>
      <path class="cls-1" d="M14.41,27.27l-7.58-4.5c-.74-.44-1.2-1.26-1.2-2.14V11.64c0-.88,.46-1.7,1.2-2.14l7.58-4.5c.36-.22,.78-.33,1.2-.33s.83,.11,1.2,.33l7.58,4.5c.62,.37,1.05,1.01,1.16,1.73-.25-.54-.82-.68-1.48-.3l-7.17,4.43c-.89,.52-1.55,1.11-1.55,2.19v8.83c0,.65,.26,1.06,.66,1.18-.13,.02-.26,.04-.4,.04-.42,0-.83-.11-1.2-.33ZM24.64,9.04l-7.58-4.5c-.45-.27-.96-.4-1.46-.4s-1.01,.13-1.46,.4l-7.58,4.5c-.9,.54-1.46,1.53-1.46,2.6v8.99c0,1.07,.56,2.07,1.46,2.6l7.58,4.5c.45,.27,.96,.4,1.46,.4s1.01-.13,1.46-.4l7.58-4.5c.9-.54,1.46-1.53,1.46-2.6V11.64c0-1.07-.56-2.07-1.46-2.6Z"/>
      <path class="cls-3" d="M22.66,21.5l-1.89,1.13c-.05,.03-.09,.06-.09,.12v.49c0,.06,.04,.09,.09,.06l1.92-1.16c.05-.03,.06-.09,.06-.15v-.44c0-.06-.04-.09-.09-.06Z"/>
      <path class="cls-2" d="M18.64,17.35c.06-.03,.11,0,.11,.09v.65c.28-.11,.52-.14,.73-.09,.05,.01,.07,.08,.05,.15l-.14,.58s-.04,.09-.06,.11c-.01,.01-.03,.02-.04,.03-.02,.01-.04,.01-.06,.01-.1-.02-.33-.07-.7,.11-.38,.19-.52,.53-.52,.78,0,.3,.15,.39,.68,.4,.7,.01,1,.32,1.01,1.02,0,.69-.36,1.44-.93,1.89v.65c.01,.08-.04,.17-.1,.2l-.38,.22c-.06,.03-.11,0-.11-.08v-.64c-.33,.14-.67,.17-.88,.08-.04-.02-.06-.07-.04-.14l.14-.58s.04-.09,.07-.12c.01-.01,.02-.02,.04-.03,.02-.01,.04-.01,.06,0,.23,.08,.52,.04,.8-.1,.36-.18,.6-.54,.59-.91,0-.33-.18-.46-.61-.47-.55,0-1.06-.11-1.07-.92,0-.67,.34-1.36,.89-1.8v-.65c0-.08,.04-.17,.11-.2l.37-.24Z"/>
      <path class="cls-4" d="M44.76,21V10.5h3.82c1.17,0,2.07,.22,2.7,.65,.63,.43,.95,1.04,.95,1.82,0,.57-.19,1.06-.58,1.49-.38,.42-.87,.72-1.47,.89v.03c.75,.09,1.34,.37,1.79,.83,.45,.46,.67,1.02,.67,1.68,0,.96-.34,1.73-1.03,2.29-.69,.56-1.63,.84-2.82,.84h-4.04Zm2.37-8.76v2.49h1.04c.49,0,.87-.12,1.15-.35,.28-.24,.43-.57,.43-.98,0-.77-.58-1.16-1.73-1.16h-.89Zm0,4.25v2.77h1.28c.55,0,.97-.13,1.28-.38,.31-.25,.47-.6,.47-1.04s-.15-.75-.46-.99c-.3-.24-.73-.36-1.27-.36h-1.3Zm13.71,4.51h-2.19v-1.08h-.03c-.5,.84-1.25,1.26-2.23,1.26-.73,0-1.3-.21-1.72-.62-.42-.41-.62-.97-.62-1.65,0-1.46,.86-2.29,2.59-2.52l2.04-.27c0-.82-.45-1.23-1.33-1.23s-1.74,.27-2.55,.8v-1.74c.32-.17,.76-.31,1.32-.44,.56-.13,1.07-.19,1.53-.19,2.14,0,3.21,1.07,3.21,3.2v4.48Zm-2.18-3.05v-.51l-1.36,.18c-.75,.1-1.13,.44-1.13,1.02,0,.26,.09,.48,.27,.65,.18,.17,.43,.25,.75,.25,.43,0,.79-.15,1.06-.45,.27-.3,.41-.68,.41-1.14Zm3.7,2.85v-1.88c.38,.23,.76,.4,1.14,.51,.38,.11,.74,.17,1.08,.17,.41,0,.73-.06,.97-.17,.24-.11,.36-.28,.36-.51,0-.15-.05-.27-.16-.37-.11-.1-.25-.18-.42-.26-.17-.07-.35-.14-.55-.2-.2-.06-.39-.12-.58-.2-.3-.11-.56-.23-.79-.36-.23-.13-.42-.28-.57-.45-.15-.17-.27-.37-.35-.59-.08-.23-.12-.49-.12-.8,0-.42,.09-.78,.27-1.08,.19-.3,.43-.55,.73-.74,.31-.19,.66-.34,1.05-.43,.4-.09,.81-.14,1.23-.14,.33,0,.67,.03,1.01,.08,.34,.05,.68,.12,1.01,.22v1.79c-.29-.17-.61-.3-.95-.38-.33-.09-.66-.13-.98-.13-.15,0-.3,.01-.43,.04-.13,.02-.25,.06-.35,.12-.1,.05-.18,.11-.24,.2-.06,.08-.09,.17-.09,.27,0,.14,.04,.25,.13,.35,.09,.1,.2,.18,.35,.26,.14,.07,.3,.13,.47,.19,.18,.05,.35,.11,.52,.17,.31,.11,.59,.22,.83,.35,.25,.13,.46,.28,.64,.45,.18,.17,.32,.37,.41,.6,.1,.23,.15,.5,.15,.82,0,.44-.1,.83-.29,1.14-.19,.31-.45,.57-.77,.77-.32,.19-.69,.34-1.11,.43-.41,.09-.85,.14-1.3,.14-.83,0-1.59-.13-2.29-.38Zm14.48,.2h-2.31v-4.26c0-1.1-.4-1.65-1.2-1.65-.41,0-.74,.15-1,.46-.25,.31-.38,.7-.38,1.17v4.28h-2.31V9.9h2.31v4.72h.03c.57-.86,1.34-1.3,2.31-1.3,1.7,0,2.55,1.02,2.55,3.08v4.61Z"/>
    </g>
  </g>
</svg>