<?xml version="1.0" encoding="UTF-8"?>
<svg id="Layer_2" data-name="Layer 2" xmlns="http://www.w3.org/2000/svg" viewBox="0 0 92 32">
  <defs>
    <style>
      .cls-1 {
        fill: #fff;
      }

      .cls-2 {
        fill: #111519;
      }

      .cls-3, .cls-4 {
        fill: #3d9bd6;
      }

      .cls-4 {
        isolation: isolate;
        opacity: .05;
      }

      .cls-5 {
        fill: #3d92c7;
      }
    </style>
  </defs>
  <g id="Layer_1-2" data-name="Layer 1">
    <g>
      <path class="cls-2" d="M87,0H31V32h56c2.76,0,5-2.24,5-5V5c0-2.76-2.24-5-5-5Z"/>
      <path class="cls-5" d="M31,0H5C2.24,0,0,2.24,0,5V27c0,2.76,2.24,5,5,5H31V0Z"/>
      <path class="cls-1" d="M25.06,26.67l-8.54,2.33-8.54-2.33L6,5H27.03l-1.97,21.67Z"/>
      <path class="cls-1" d="M16.52,6.75V27.14h.02s6.91-1.88,6.91-1.88l1.6-18.5h-8.53Z"/>
      <path class="cls-3" d="M16.51,12.17l-6.12,2.58,.2,2.56,5.91-2.56,6.29-2.73,.26-2.62-6.55,2.77Z"/>
      <path class="cls-3" d="M10.39,14.76l.2,2.56,5.91-2.57v-2.58l-6.12,2.58Z"/>
      <path class="cls-3" d="M23.06,9.41l-6.55,2.77v2.58l6.29-2.73,.26-2.62Z"/>
      <path class="cls-3" d="M10.4,14.76l.2,2.56,9.07,.03-.2,3.41-2.99,.85-2.87-.74-.17-2.12h-2.67l.35,4.09,5.39,1.62,5.36-1.59,.7-8.11H10.4Z"/>
      <path class="cls-3" d="M16.51,14.76h-6.12l.2,2.56,5.91,.02v-2.58Zm0,6.84h-.03s-2.87-.73-2.87-.73l-.17-2.12h-2.67l.35,4.09,5.39,1.62v-2.86Z"/>
      <path class="cls-3" d="M9.84,9.41h13.22l-.26,2.62H10.16l-.32-2.62Z"/>
      <path class="cls-4" d="M16.51,9.41h-6.67l.32,2.62h6.35v-2.62Z"/>
      <path class="cls-1" d="M52.03,21.63c-.77,.37-1.77,.56-3,.56-1.61,0-2.88-.47-3.8-1.42-.92-.95-1.38-2.21-1.38-3.79,0-1.68,.52-3.04,1.55-4.09,1.04-1.04,2.39-1.57,4.04-1.57,1.03,0,1.89,.13,2.59,.39v2.28c-.7-.42-1.5-.63-2.4-.63-.99,0-1.78,.31-2.39,.93-.61,.62-.91,1.46-.91,2.52s.29,1.83,.86,2.43c.57,.6,1.34,.9,2.31,.9s1.77-.23,2.53-.67v2.16Zm2.06-.03v-2.34c.42,.36,.89,.62,1.38,.81,.5,.18,1,.26,1.51,.26,.3,0,.56-.03,.78-.08,.22-.05,.41-.13,.56-.22,.15-.1,.26-.21,.34-.34,.07-.13,.11-.27,.11-.43,0-.21-.06-.39-.18-.55-.12-.16-.28-.31-.48-.45-.2-.14-.44-.27-.72-.4-.28-.13-.58-.26-.9-.39-.82-.34-1.43-.76-1.84-1.25-.4-.49-.6-1.09-.6-1.79,0-.55,.11-1.01,.33-1.41,.22-.4,.52-.72,.89-.97,.38-.25,.82-.44,1.32-.56,.5-.12,1.03-.18,1.58-.18s1.03,.03,1.45,.1c.42,.06,.82,.16,1.17,.3v2.19c-.18-.12-.37-.23-.58-.32-.21-.09-.42-.17-.64-.23-.22-.06-.44-.11-.66-.14-.21-.03-.42-.04-.62-.04-.27,0-.51,.03-.73,.08-.22,.05-.41,.12-.56,.21-.15,.09-.27,.21-.35,.34-.08,.13-.12,.27-.12,.43,0,.18,.05,.33,.14,.48,.09,.14,.22,.27,.4,.4,.17,.12,.38,.24,.62,.37,.24,.12,.52,.24,.83,.37,.42,.17,.8,.36,1.13,.56,.34,.19,.62,.42,.86,.67,.24,.25,.42,.54,.55,.86,.13,.32,.19,.69,.19,1.11,0,.59-.11,1.08-.34,1.48-.22,.4-.52,.72-.9,.97-.38,.24-.83,.42-1.33,.53-.5,.11-1.04,.16-1.6,.16s-1.13-.05-1.65-.15c-.52-.1-.97-.24-1.35-.44Zm9.12,0v-2.34c.42,.36,.89,.62,1.38,.81,.5,.18,1,.26,1.51,.26,.3,0,.56-.03,.78-.08,.22-.05,.41-.13,.56-.22,.15-.1,.26-.21,.34-.34,.07-.13,.11-.27,.11-.43,0-.21-.06-.39-.18-.55-.12-.16-.28-.31-.48-.45-.2-.14-.44-.27-.72-.4s-.58-.26-.9-.39c-.82-.34-1.43-.76-1.84-1.25-.4-.49-.6-1.09-.6-1.79,0-.55,.11-1.01,.33-1.41,.22-.4,.52-.72,.89-.97,.38-.25,.82-.44,1.32-.56,.5-.12,1.03-.18,1.58-.18s1.03,.03,1.45,.1c.42,.06,.82,.16,1.17,.3v2.19c-.18-.12-.37-.23-.58-.32-.21-.09-.42-.17-.64-.23-.22-.06-.44-.11-.66-.14-.21-.03-.42-.04-.62-.04-.27,0-.51,.03-.73,.08-.22,.05-.41,.12-.56,.21-.15,.09-.27,.21-.35,.34-.08,.13-.12,.27-.12,.43,0,.18,.05,.33,.14,.48,.09,.14,.22,.27,.4,.4,.17,.12,.38,.24,.62,.37,.24,.12,.52,.24,.83,.37,.42,.17,.8,.36,1.13,.56,.34,.19,.62,.42,.86,.67,.24,.25,.42,.54,.55,.86,.13,.32,.19,.69,.19,1.11,0,.59-.11,1.08-.34,1.48-.22,.4-.52,.72-.9,.97-.38,.24-.83,.42-1.33,.53-.5,.11-1.04,.16-1.6,.16s-1.13-.05-1.65-.15c-.52-.1-.97-.24-1.35-.44Zm8.99,.06v-2.01c.7,.51,1.52,.77,2.46,.77,.59,0,1.05-.13,1.38-.38,.33-.25,.5-.61,.5-1.06s-.21-.83-.62-1.08c-.41-.25-.96-.38-1.68-.38h-.97v-1.77h.9c1.37,0,2.05-.45,2.05-1.36,0-.85-.52-1.28-1.57-1.28-.7,0-1.39,.23-2.05,.68v-1.89c.74-.37,1.6-.56,2.58-.56,1.07,0,1.91,.24,2.5,.72,.6,.48,.9,1.11,.9,1.88,0,1.37-.7,2.23-2.09,2.58v.04c.74,.09,1.33,.36,1.76,.81,.43,.44,.64,.99,.64,1.64,0,.98-.36,1.76-1.08,2.33-.72,.57-1.71,.86-2.97,.86-1.08,0-1.97-.18-2.64-.53Z"/>
    </g>
  </g>
</svg>