<?xml version="1.0" encoding="UTF-8"?>
<svg id="Layer_2" data-name="Layer 2" xmlns="http://www.w3.org/2000/svg" viewBox="0 0 77.42 32">
  <defs>
    <style>
      .cls-1 {
        font-family: SegoeUI-Bold, 'Segoe UI';
        font-size: 15.02px;
        font-weight: 700;
      }

      .cls-1, .cls-2 {
        fill: #fff;
      }

      .cls-3 {
        fill: #111519;
      }

      .cls-2 {
        stroke: #1c2125;
      }

      .cls-4 {
        fill: #de4c36;
      }
    </style>
  </defs>
  <g id="Layer_1-2" data-name="Layer 1">
    <g>
      <path class="cls-3" d="M73.49,0H31V32h42.49c2.17,0,3.93-2.24,3.93-5V5c0-2.76-1.76-5-3.93-5Z"/>
      <path class="cls-2" d="M5,.5H30.5V31.5H5c-2.49,0-4.5-2.01-4.5-4.5V5C.5,2.51,2.51,.5,5,.5Z"/>
      <text class="cls-1" transform="translate(43.71 21.45)"><tspan x="0" y="0">Git</tspan></text>
      <path class="cls-4" d="M27.31,14.91L16.59,4.19c-.62-.62-1.62-.62-2.23,0l-2.22,2.22,2.82,2.82c.66-.22,1.41-.07,1.93,.45,.53,.53,.67,1.28,.45,1.94l2.72,2.72c.66-.23,1.42-.08,1.94,.45,.73,.73,.73,1.92,0,2.66-.73,.73-1.92,.73-2.66,0-.55-.55-.69-1.36-.41-2.05l-2.54-2.54v6.68c.18,.09,.35,.21,.5,.36,.73,.73,.73,1.92,0,2.66-.73,.73-1.93,.73-2.66,0-.73-.74-.73-1.93,0-2.66,.18-.18,.39-.32,.62-.41v-6.74c-.22-.09-.43-.23-.62-.41-.56-.56-.69-1.37-.41-2.06l-2.78-2.78L3.69,14.86c-.62,.62-.62,1.62,0,2.24l10.71,10.71c.62,.62,1.62,.62,2.24,0l10.66-10.66c.62-.62,.62-1.62,0-2.24"/>
    </g>
  </g>
</svg>