<?xml version="1.0" encoding="UTF-8"?>
<svg id="Layer_2" data-name="Layer 2" xmlns="http://www.w3.org/2000/svg" viewBox="0 0 94.37 32">
  <defs>
    <style>
      .cls-1 {
        fill: #fff;
        font-family: SegoeUI-Bold, 'Segoe UI';
        font-size: 15.02px;
        font-weight: 700;
      }

      .cls-2 {
        fill: #111519;
      }

      .cls-3 {
        fill: #181816;
      }

      .cls-4 {
        fill: #f1f2f2;
        stroke: #1c2125;
      }
    </style>
  </defs>
  <g id="Layer_1-2" data-name="Layer 1">
    <g>
      <path class="cls-2" d="M89,0H31V32h58c2.97,0,5.37-2.24,5.37-5V5c0-2.76-2.4-5-5.37-5Z"/>
      <path class="cls-4" d="M5,.5H30.5V31.5H5c-2.49,0-4.5-2.01-4.5-4.5V5C.5,2.51,2.51,.5,5,.5Z"/>
      <text class="cls-1" transform="translate(35.08 21.47)"><tspan x="0" y="0">GitHub</tspan></text>
      <path class="cls-3" d="M15.5,4.63c-6.27,0-11.35,5.08-11.35,11.35,0,5.01,3.25,9.27,7.76,10.77,.57,.11,.78-.25,.78-.55,0-.27-.01-1.16-.02-2.11-3.16,.69-3.82-1.34-3.82-1.34-.52-1.31-1.26-1.66-1.26-1.66-1.03-.7,.08-.69,.08-.69,1.14,.08,1.74,1.17,1.74,1.17,1.01,1.74,2.66,1.23,3.3,.94,.1-.73,.4-1.23,.72-1.52-2.52-.29-5.17-1.26-5.17-5.61,0-1.24,.44-2.25,1.17-3.05-.12-.29-.51-1.44,.11-3,0,0,.95-.31,3.12,1.16,.91-.25,1.88-.38,2.84-.38,.96,0,1.94,.13,2.84,.38,2.17-1.47,3.12-1.16,3.12-1.16,.62,1.56,.23,2.72,.11,3,.73,.79,1.17,1.81,1.17,3.05,0,4.36-2.66,5.32-5.18,5.6,.41,.35,.77,1.04,.77,2.1,0,1.52-.01,2.74-.01,3.11,0,.3,.2,.66,.78,.54,4.51-1.5,7.76-5.76,7.76-10.77,0-6.27-5.08-11.35-11.35-11.35Zm-7.1,16.17c-.02,.06-.11,.07-.19,.03-.08-.04-.13-.11-.1-.17,.02-.06,.11-.07,.2-.04,.08,.04,.13,.11,.1,.17Zm.56,.5c-.05,.05-.16,.03-.23-.05-.07-.08-.09-.18-.03-.24,.06-.05,.16-.03,.23,.05,.07,.08,.09,.19,.03,.24Zm.38,.64c-.07,.05-.18,0-.25-.1-.07-.1-.07-.22,0-.27,.07-.05,.18,0,.25,.1,.07,.1,.07,.22,0,.27Zm.65,.74c-.06,.07-.19,.05-.29-.04-.1-.09-.13-.22-.06-.29,.06-.07,.2-.05,.29,.04,.1,.09,.13,.22,.06,.29Zm.84,.25c-.03,.09-.16,.13-.28,.09-.13-.04-.21-.14-.19-.23,.03-.09,.15-.13,.28-.09,.13,.04,.21,.14,.19,.23Zm.95,.11c0,.09-.11,.17-.24,.17-.14,0-.25-.07-.25-.16,0-.09,.11-.17,.24-.17,.13,0,.25,.07,.25,.17Zm.94-.04c.02,.09-.08,.19-.21,.21-.13,.02-.25-.03-.27-.12-.02-.09,.08-.19,.21-.21,.13-.02,.25,.03,.27,.12Z"/>
    </g>
  </g>
</svg>