<?xml version="1.0" encoding="UTF-8"?>
<svg id="Layer_2" data-name="Layer 2" xmlns="http://www.w3.org/2000/svg" viewBox="0 0 98 32">
  <defs>
    <style>
      .cls-1 {
        fill: #edeff0;
      }

      .cls-2 {
        fill: #cfd8dc;
      }

      .cls-3, .cls-4 {
        fill: #fff;
      }

      .cls-5 {
        fill: #111519;
      }

      .cls-6 {
        fill: #ef4438;
      }

      .cls-4 {
        stroke: #151a1d;
      }
    </style>
  </defs>
  <g id="Layer_1-2" data-name="Layer 1">
    <g>
      <path class="cls-5" d="M93,0H31V32h62c2.76,0,5-2.24,5-5V5c0-2.76-2.24-5-5-5Z"/>
      <path class="cls-4" d="M5,.5H30.5V31.5H5c-2.49,0-4.5-2.02-4.5-4.5V5C.5,2.51,2.51,.5,5,.5Z"/>
      <path class="cls-1" d="M25,7H7V25H25V7Z"/>
      <path class="cls-2" d="M16,17.89l9,7.11V10.97l-9,6.92Z"/>
      <path class="cls-6" d="M25.75,7h-.75l-9,7.11L7,7h-.75c-1.24,0-2.25,1.01-2.25,2.25v13.5c0,1.24,1.01,2.25,2.25,2.25h.75V10.97l9,6.92,9-6.92v14.03h.75c1.24,0,2.25-1.01,2.25-2.25V9.25c0-1.24-1.01-2.25-2.25-2.25Z"/>
      <path class="cls-3" d="M53.46,21.3c-1.03,.59-2.3,.89-3.82,.89-1.69,0-3.02-.47-4-1.4-.97-.94-1.46-2.23-1.46-3.87s.53-3,1.6-4.04c1.06-1.04,2.48-1.56,4.25-1.56,1.11,0,2.09,.15,2.94,.46v2.22c-.81-.47-1.8-.7-2.97-.7-.98,0-1.78,.32-2.4,.96-.62,.64-.92,1.49-.92,2.55s.28,1.91,.83,2.5c.56,.59,1.31,.89,2.25,.89,.57,0,1.02-.08,1.35-.24v-2.05h-2.1v-1.89h4.47v5.28Zm14.17,.7h-2.31v-4.28c0-1.09-.4-1.63-1.2-1.63-.38,0-.69,.16-.93,.49-.24,.33-.36,.74-.36,1.22v4.2h-2.31v-4.32c0-1.06-.39-1.59-1.18-1.59-.4,0-.71,.16-.95,.47-.23,.31-.35,.74-.35,1.27v4.17h-2.31v-7.5h2.31v1.17h.03c.24-.4,.57-.72,1-.97,.43-.25,.91-.38,1.42-.38,1.06,0,1.78,.47,2.18,1.4,.57-.93,1.41-1.4,2.52-1.4,1.63,0,2.45,1.01,2.45,3.02v4.67Zm8.25,0h-2.19v-1.08h-.03c-.5,.84-1.25,1.26-2.23,1.26-.73,0-1.3-.21-1.72-.62-.41-.41-.62-.97-.62-1.65,0-1.46,.86-2.29,2.59-2.52l2.04-.27c0-.82-.44-1.23-1.33-1.23s-1.74,.27-2.55,.8v-1.74c.32-.17,.76-.31,1.32-.44,.56-.13,1.07-.19,1.53-.19,2.14,0,3.21,1.07,3.21,3.2v4.48Zm-2.18-3.05v-.51l-1.36,.18c-.75,.1-1.13,.44-1.13,1.02,0,.26,.09,.48,.27,.65,.19,.17,.43,.25,.75,.25,.43,0,.79-.15,1.06-.45,.27-.3,.41-.68,.41-1.14Zm5.36-5.64c-.39,0-.71-.11-.96-.34-.25-.23-.37-.52-.37-.86s.12-.63,.37-.85c.25-.22,.57-.33,.96-.33s.72,.11,.96,.33c.25,.22,.37,.5,.37,.85s-.12,.64-.37,.87c-.24,.22-.56,.34-.96,.34Zm1.14,8.69h-2.31v-7.5h2.31v7.5Zm4.44,0h-2.31V10.9h2.31v11.1Z"/>
    </g>
  </g>
</svg>