<?xml version="1.0" encoding="UTF-8"?>
<svg id="Layer_2" data-name="Layer 2" xmlns="http://www.w3.org/2000/svg" viewBox="0 0 100 32">
  <defs>
    <style>
      .cls-1 {
        fill: #fff;
      }

      .cls-2 {
        fill: #111519;
      }

      .cls-3 {
        fill: #e34e26;
      }
    </style>
  </defs>
  <g id="Layer_1-2" data-name="Layer 1">
    <g>
      <path class="cls-2" d="M95,0H31V32H95c2.76,0,5-2.24,5-5V5c0-2.76-2.24-5-5-5Z"/>
      <path class="cls-3" d="M31,0H5C2.24,0,0,2.24,0,5V27c0,2.76,2.24,5,5,5H31V0Z"/>
      <path class="cls-1" d="M6,4l1.87,21.2,8.39,2.8,8.44-2.8,1.87-21.2H6Zm16.51,6.85H12.66l.22,2.65h9.41l-.73,7.95-5.24,1.45v.02h-.06l-5.29-1.46-.32-4.06h2.56l.19,2.04,2.87,.78,2.88-.78,.32-3.33H10.52l-.69-7.8h12.92l-.24,2.56Z"/>
      <path class="cls-1" d="M53.57,22h-2.37v-4.28h-4.35v4.28h-2.37V11.5h2.37v4.19h4.35v-4.19h2.37v10.5Zm10.49-8.58h-3v8.58h-2.37V13.42h-2.98v-1.93h8.35v1.93Zm14.09,8.58h-2.34v-6.28c0-.68,.03-1.43,.09-2.25h-.06c-.12,.64-.23,1.11-.33,1.39l-2.46,7.14h-1.93l-2.5-7.07c-.07-.19-.18-.68-.33-1.46h-.07c.06,1.04,.1,1.94,.1,2.72v5.81h-2.13V11.5h3.46l2.15,6.23c.17,.5,.3,1,.37,1.5h.04c.13-.58,.27-1.09,.42-1.52l2.15-6.21h3.38v10.5Zm9.35,0h-6.25V11.5h2.37v8.58h3.89v1.92Z"/>
    </g>
  </g>
</svg>