<?xml version="1.0" encoding="UTF-8"?>
<svg id="Layer_2" data-name="Layer 2" xmlns="http://www.w3.org/2000/svg" viewBox="0 0 111.78 32">
  <defs>
    <style>
      .cls-1 {
        fill: #f89a1c;
      }

      .cls-2 {
        fill: #fff;
        font-family: SegoeUI-Bold, 'Segoe UI';
        font-size: 15.02px;
        font-weight: 700;
      }

      .cls-3 {
        fill: #111519;
      }

      .cls-4 {
        fill: #301111;
      }

      .cls-5 {
        letter-spacing: 0em;
      }
    </style>
  </defs>
  <g id="Layer_1-2" data-name="Layer 1">
    <g>
      <path class="cls-3" d="M105.93,0H31V32H105.93c3.23,0,5.85-2.24,5.85-5V5c0-2.76-2.62-5-5.85-5Z"/>
      <path class="cls-4" d="M31,0H5C2.24,0,0,2.24,0,5V27c0,2.76,2.24,5,5,5H31V0Z"/>
      <text class="cls-2" transform="translate(35.92 21.47)"><tspan x="0" y="0">Illustra</tspan><tspan class="cls-5" x="48.9" y="0">t</tspan><tspan x="54.68" y="0">or</tspan></text>
      <path class="cls-1" d="M15.51,20.31h-5.12l-1.05,3.23c-.03,.12-.14,.21-.26,.19h-2.59c-.15,0-.19-.08-.15-.25l4.43-12.75c.04-.14,.08-.29,.14-.45,.06-.29,.08-.59,.08-.89-.01-.07,.04-.14,.11-.15h3.56c.11,0,.17,.04,.18,.11l5.02,14.17c.04,.15,0,.22-.14,.22h-2.88c-.1,.01-.19-.06-.22-.15l-1.13-3.27Zm-4.32-2.79h3.49c-.08-.29-.19-.63-.32-.99-.12-.37-.25-.77-.37-1.18-.14-.43-.26-.84-.4-1.27s-.26-.83-.37-1.22c-.11-.39-.21-.74-.3-1.07h-.03c-.12,.59-.28,1.18-.47,1.77-.21,.66-.41,1.35-.63,2.04-.19,.7-.4,1.35-.61,1.93h0Zm11.75-5.87c-.45,.01-.89-.17-1.22-.48-.32-.34-.48-.8-.47-1.27-.01-.47,.17-.91,.5-1.22s.77-.48,1.22-.48c.54,0,.95,.17,1.25,.48,.3,.33,.47,.77,.45,1.22,.01,.47-.15,.92-.48,1.27-.32,.33-.78,.51-1.25,.48h0Zm-1.54,11.94V12.99c0-.14,.06-.19,.18-.19h2.72c.12,0,.18,.07,.18,.19v10.59c0,.15-.06,.22-.18,.22h-2.7c-.14,0-.21-.08-.21-.22Z"/>
    </g>
  </g>
</svg>