<?xml version="1.0" encoding="UTF-8"?>
<svg id="Layer_2" data-name="Layer 2" xmlns="http://www.w3.org/2000/svg" viewBox="0 0 130 32">
  <defs>
    <style>
      .cls-1 {
        fill: #fff;
      }

      .cls-2 {
        fill: #111519;
      }

      .cls-3 {
        fill: #f1c72e;
      }
    </style>
  </defs>
  <g id="Layer_1-2" data-name="Layer 1">
    <g>
      <path class="cls-2" d="M125,0H31V32H125c2.76,0,5-2.24,5-5V5c0-2.76-2.24-5-5-5Z"/>
      <path class="cls-3" d="M31,0H5C2.24,0,0,2.24,0,5V27c0,2.76,2.24,5,5,5H31V0Z"/>
      <path class="cls-1" d="M15.34,28.05c-.32,0-.64-.09-.92-.25l-2.94-1.74c-.44-.25-.22-.33-.08-.38,.59-.2,.7-.25,1.33-.6,.07-.04,.15-.02,.22,.02l2.26,1.34c.08,.05,.2,.05,.27,0l8.8-5.08c.08-.05,.13-.14,.13-.24V10.97c0-.1-.05-.19-.14-.24L15.47,5.65c-.08-.05-.19-.05-.27,0L6.41,10.73c-.09,.05-.14,.14-.14,.24v10.15c0,.1,.05,.19,.14,.23l2.41,1.39c1.31,.65,2.11-.11,2.11-.89V11.83c0-.14,.12-.25,.26-.25h1.11c.14,0,.26,.11,.26,.25v10.02c0,1.74-.95,2.74-2.6,2.74-.51,0-.91,0-2.02-.55l-2.31-1.33c-.57-.33-.92-.94-.92-1.6V10.97c0-.66,.35-1.28,.92-1.61L14.41,4.29c.56-.31,1.29-.31,1.85,0l8.8,5.08c.57,.33,.92,.94,.92,1.6v10.15c0,.66-.35,1.27-.92,1.61l-8.8,5.08c-.28,.16-.6,.25-.92,.25Zm7.1-10.01c0-1.9-1.29-2.41-3.99-2.76-2.73-.36-3.01-.55-3.01-1.19,0-.53,.23-1.23,2.26-1.23,1.8,0,2.47,.39,2.75,1.61,.02,.11,.13,.2,.25,.2h1.14c.07,0,.14-.03,.19-.08,.05-.05,.07-.12,.07-.2-.18-2.1-1.57-3.08-4.39-3.08-2.51,0-4.01,1.06-4.01,2.83,0,1.92,1.49,2.46,3.9,2.7,2.88,.28,3.1,.7,3.1,1.27,0,.98-.79,1.4-2.64,1.4-2.33,0-2.84-.59-3.01-1.74-.02-.12-.12-.21-.25-.21h-1.14c-.14,0-.25,.11-.25,.25,0,1.48,.81,3.25,4.66,3.25,2.78,0,4.38-1.1,4.38-3.02Z"/>
      <path class="cls-1" d="M49.19,17.83c0,1.41-.33,2.48-.98,3.23-.65,.75-1.59,1.12-2.83,1.12-.55,0-1.06-.1-1.53-.29v-2.22c.4,.31,.86,.46,1.36,.46,1.08,0,1.62-.8,1.62-2.4v-6.24h2.36v6.34Zm8.61,4.17h-2.19v-1.08h-.03c-.5,.84-1.25,1.26-2.23,1.26-.73,0-1.3-.21-1.72-.62-.42-.42-.62-.97-.62-1.66,0-1.46,.86-2.29,2.59-2.52l2.04-.27c0-.82-.44-1.23-1.33-1.23s-1.74,.27-2.55,.8v-1.74c.32-.17,.76-.31,1.32-.44,.56-.13,1.07-.19,1.53-.19,2.14,0,3.21,1.07,3.21,3.2v4.48Zm-2.18-3.05v-.51l-1.36,.18c-.75,.1-1.13,.44-1.13,1.02,0,.26,.09,.48,.27,.65,.18,.17,.43,.25,.75,.25,.43,0,.79-.15,1.06-.45,.27-.3,.41-.68,.41-1.14Zm11.33-4.45l-2.79,7.5h-2.64l-2.66-7.5h2.48l1.3,4.62c.15,.52,.23,.97,.26,1.33h.03c.03-.35,.12-.78,.27-1.29l1.33-4.67h2.42Zm7.18,7.5h-2.19v-1.08h-.03c-.5,.84-1.25,1.26-2.23,1.26-.73,0-1.3-.21-1.72-.62-.42-.42-.62-.97-.62-1.66,0-1.46,.86-2.29,2.59-2.52l2.04-.27c0-.82-.44-1.23-1.33-1.23s-1.74,.27-2.55,.8v-1.74c.32-.17,.76-.31,1.32-.44,.56-.13,1.07-.19,1.53-.19,2.14,0,3.21,1.07,3.21,3.2v4.48Zm-2.18-3.05v-.51l-1.36,.18c-.75,.1-1.13,.44-1.13,1.02,0,.26,.09,.48,.27,.65,.19,.17,.44,.25,.75,.25,.43,0,.79-.15,1.06-.45,.27-.3,.41-.68,.41-1.14Zm4.19,2.64v-2.34c.43,.36,.89,.62,1.38,.81,.5,.18,1,.26,1.51,.26,.3,0,.56-.03,.78-.08,.22-.05,.41-.13,.56-.22,.15-.1,.26-.21,.34-.34,.07-.13,.11-.27,.11-.42,0-.2-.06-.39-.18-.55-.12-.16-.28-.31-.48-.45-.2-.14-.44-.27-.72-.4-.28-.13-.58-.26-.9-.39-.82-.34-1.43-.76-1.84-1.25-.4-.49-.6-1.09-.6-1.79,0-.55,.11-1.02,.33-1.41,.22-.4,.52-.72,.89-.97,.38-.25,.82-.44,1.32-.56,.5-.12,1.02-.18,1.58-.18s1.03,.03,1.45,.1c.43,.06,.82,.16,1.17,.3v2.19c-.18-.12-.37-.23-.58-.32-.21-.09-.42-.17-.64-.23-.22-.06-.44-.11-.66-.14-.21-.03-.42-.04-.62-.04-.27,0-.51,.03-.73,.08-.22,.05-.41,.12-.56,.21-.15,.09-.27,.21-.35,.34-.08,.13-.12,.27-.12,.43,0,.18,.05,.33,.14,.48,.09,.14,.22,.27,.4,.4,.17,.12,.38,.24,.62,.37,.24,.12,.52,.24,.83,.37,.42,.18,.8,.36,1.13,.56,.34,.2,.62,.42,.87,.67,.24,.25,.42,.53,.55,.86,.13,.32,.19,.69,.19,1.11,0,.59-.11,1.08-.34,1.48-.22,.4-.52,.72-.9,.97-.38,.24-.83,.42-1.33,.53-.5,.11-1.04,.16-1.6,.16s-1.13-.05-1.65-.15c-.52-.1-.97-.24-1.35-.44Zm14.79,.13c-.52,.3-1.28,.45-2.26,.45-1.15,0-2.08-.35-2.8-1.05-.71-.7-1.07-1.6-1.07-2.7,0-1.27,.38-2.28,1.14-3.01,.77-.74,1.79-1.11,3.07-1.11,.88,0,1.52,.12,1.92,.35v1.96c-.48-.36-1.02-.54-1.62-.54-.66,0-1.19,.2-1.58,.59-.39,.39-.58,.92-.58,1.6s.18,1.19,.56,1.57c.37,.38,.88,.56,1.53,.56,.58,0,1.14-.18,1.69-.54v1.86Zm6.6-5.14c-.28-.15-.6-.23-.97-.23-.5,0-.9,.19-1.18,.56-.28,.37-.43,.87-.43,1.5v3.58h-2.31v-7.5h2.31v1.39h.03c.37-1.02,1.03-1.52,1.98-1.52,.24,0,.43,.03,.57,.09v2.13Zm2.49-3.27c-.39,0-.71-.11-.96-.34-.25-.23-.37-.52-.37-.86s.12-.63,.37-.85c.25-.22,.57-.33,.96-.33s.71,.11,.96,.33c.25,.22,.37,.5,.37,.85s-.12,.64-.37,.86c-.24,.22-.56,.34-.96,.34Zm1.14,8.69h-2.31v-7.5h2.31v7.5Zm4.47-.87h-.03v4.32h-2.32V14.5h2.32v1.13h.03c.57-.87,1.38-1.31,2.41-1.31,.97,0,1.72,.33,2.25,1,.53,.66,.8,1.57,.8,2.72,0,1.25-.31,2.25-.93,3.01-.62,.76-1.44,1.14-2.46,1.14-.9,0-1.59-.35-2.07-1.05Zm-.07-3.08v.6c0,.52,.14,.94,.41,1.27,.27,.33,.63,.49,1.08,.49,.53,0,.93-.2,1.22-.61,.29-.41,.44-.99,.44-1.74,0-1.32-.51-1.98-1.54-1.98-.47,0-.86,.18-1.17,.54-.3,.36-.45,.83-.45,1.42Zm11.74,3.86c-.34,.18-.86,.27-1.55,.27-1.63,0-2.45-.85-2.45-2.54v-3.44h-1.22v-1.71h1.22v-1.62l2.31-.66v2.28h1.68v1.71h-1.68v3.03c0,.78,.31,1.17,.93,1.17,.24,0,.5-.07,.75-.21v1.71Z"/>
    </g>
  </g>
</svg>