<?xml version="1.0" encoding="UTF-8"?>
<svg id="Layer_2" data-name="Layer 2" xmlns="http://www.w3.org/2000/svg" xmlns:xlink="http://www.w3.org/1999/xlink" viewBox="0 0 74 32.2">
  <defs>
    <style>
      .cls-1 {
        fill-rule: evenodd;
      }

      .cls-1, .cls-2 {
        fill: #fff;
      }

      .cls-3 {
        fill: #111519;
      }

      .cls-2 {
        stroke: #1c2125;
      }

      .cls-4 {
        clip-path: url(#clippath);
      }

      .cls-5 {
        fill: none;
      }

      .cls-6 {
        fill: #47a347;
      }
    </style>
    <clipPath id="clippath">
      <rect class="cls-5" y=".2" width="74" height="32"/>
    </clipPath>
  </defs>
  <g id="Layer_1-2" data-name="Layer 1">
    <g>
      <g class="cls-4">
        <path class="cls-3" d="M68.88,.2H30.88V32.2h38c2.76,0,5-2.24,5-5V5.2c0-2.76-2.24-5-5-5Z"/>
        <path class="cls-1" d="M43.4,17.27l.24,.05-.85,2.69h-7.66v-.27h.37c.42,0,.72-.14,.9-.41,.1-.16,.15-.52,.15-1.08v-6.39c0-.62-.07-1-.2-1.16-.19-.21-.47-.32-.84-.32h-.37v-.27h4.48v.27c-.53,0-.89,.04-1.11,.14-.21,.1-.36,.23-.43,.39-.08,.15-.12,.53-.12,1.12v6.22c0,.4,.04,.68,.12,.83,.06,.1,.15,.18,.27,.23,.12,.05,.5,.07,1.14,.07h.72c.76,0,1.29-.05,1.6-.17,.31-.11,.59-.31,.84-.6,.25-.28,.51-.73,.76-1.35Z"/>
        <path class="cls-1" d="M44.58,15.41h-2.98l-.52,1.22c-.13,.3-.19,.52-.19,.67,0,.12,.06,.22,.17,.31,.11,.09,.35,.15,.73,.17v.21h-2.43v-.21c.32-.06,.53-.13,.62-.22,.19-.18,.41-.55,.64-1.11l2.71-6.34h.2l2.68,6.41c.22,.52,.41,.85,.59,1,.18,.15,.42,.24,.74,.26v.21h-3.04v-.21c.31-.02,.51-.07,.62-.15,.11-.09,.16-.19,.16-.32,0-.17-.08-.43-.23-.79l-.47-1.11h0Zm-.16-.42l-1.31-3.11-1.34,3.11h2.65Z"/>
        <path class="cls-1" d="M53.97,10.04l.11,2.34h-.28c-.05-.41-.13-.71-.22-.88-.15-.28-.35-.49-.61-.63-.25-.14-.59-.2-1-.2h-1.41v7.62c0,.61,.07,.99,.2,1.15,.19,.21,.47,.31,.86,.31h.35v.27h-4.23v-.27h.35c.42,0,.72-.13,.9-.38,.11-.16,.16-.51,.16-1.07v-7.62h-1.2c-.46,0-.8,.04-.99,.1-.26,.09-.47,.27-.66,.54-.18,.27-.29,.62-.32,1.07h-.28l.12-2.34h8.14Z"/>
        <path class="cls-1" d="M55.18,13.31v3.78h2.1c.55,0,.91-.08,1.09-.25,.25-.22,.38-.6,.41-1.14h.26v3.33h-.26c-.07-.46-.13-.76-.2-.9-.08-.16-.22-.29-.42-.39-.19-.09-.49-.14-.89-.14h-2.1v3.15c0,.42,.02,.68,.06,.77,.04,.09,.1,.16,.2,.22,.09,.05,.27,.08,.54,.08h1.62c.54,0,.93-.04,1.18-.11,.25-.07,.48-.22,.71-.44,.29-.29,.59-.73,.9-1.32h.28l-.82,2.4h-7.37v-.26h.34c.22,0,.44-.06,.64-.16,.15-.07,.25-.19,.31-.34,.05-.15,.08-.46,.08-.92v-6.22c0-.61-.06-.98-.18-1.12-.17-.19-.45-.28-.85-.28h-.34v-.26h7.37l.11,2.1h-.28c-.1-.5-.21-.85-.33-1.04-.12-.19-.3-.33-.53-.43-.19-.07-.52-.11-.99-.11h-2.62Z"/>
        <path class="cls-1" d="M65.11,14.5l2.13,3.17c.59,.88,1.02,1.43,1.31,1.66,.28,.23,.65,.36,1.08,.38v.27h-4.25v-.27c.28,0,.49-.03,.63-.09,.1-.04,.19-.11,.25-.2,.06-.09,.1-.18,.1-.27,0-.12-.02-.23-.06-.34-.03-.08-.17-.3-.4-.64l-1.68-2.54-2.07,2.66c-.22,.28-.35,.47-.39,.57-.04,.09-.07,.19-.07,.3,0,.16,.07,.28,.2,.39,.13,.1,.38,.16,.75,.18v.27h-3.51v-.27c.25-.02,.46-.08,.64-.15,.31-.13,.6-.3,.86-.51,.27-.21,.59-.54,.93-.99l2.34-2.95-1.95-2.86c-.53-.77-.98-1.28-1.35-1.52-.37-.24-.8-.37-1.28-.38v-.27h4.58v.27c-.39,.02-.66,.08-.8,.19-.14,.11-.21,.24-.21,.37,0,.18,.12,.44,.35,.79l1.52,2.27,1.76-2.23c.2-.26,.33-.44,.38-.54,.04-.1,.07-.2,.07-.3s-.03-.19-.09-.27c-.07-.1-.16-.17-.28-.21-.11-.04-.34-.06-.69-.07v-.27h3.51v.27c-.28,.02-.5,.06-.68,.13-.26,.11-.5,.26-.72,.45s-.53,.54-.93,1.05l-1.96,2.51h0Z"/>
      </g>
      <path class="cls-2" d="M5.19,.5H30.69V31.5H5.19c-2.49,0-4.5-2.01-4.5-4.5V5C.69,2.51,2.7,.5,5.19,.5Z"/>
      <path class="cls-6" d="M5,19.78c0,3.19,1.79,6.14,4.66,7.69,2.87,1.48,6.29,1.32,8.93-.54,2.64-1.79,4.04-4.97,3.65-8.16s-2.49-5.9-5.52-7.07c-1.01-.39-2.02-.62-3.11-.58-1.86,1.24-3.42,3.03-4.35,5.05,3.19-3.34,7.69-2.33,9.56,1.24,1.63,4.04-1.24,8-5.21,8.08-4.2-.21-6.6-4.27-5.98-7.77,1.09-6.68,9.09-10.49,14.99-11.96-2.72,1.32-5.36,2.8-7.85,4.51,7.15,2.72,8.31-3.26,11.58-5.9-3.34-1.32-15.31-1.94-15.38,5.28-3.42,2.18-5.83,5.59-5.98,10.1v.04Z"/>
    </g>
  </g>
</svg>