<?xml version="1.0" encoding="UTF-8"?>
<svg id="Layer_2" data-name="Layer 2" xmlns="http://www.w3.org/2000/svg" viewBox="0 0 118 32">
  <defs>
    <style>
      .cls-1 {
        fill: #fff;
      }

      .cls-2 {
        fill: #111519;
      }

      .cls-3 {
        fill: #10497f;
      }
    </style>
  </defs>
  <g id="Layer_1-2" data-name="Layer 1">
    <g>
      <path class="cls-2" d="M113,0H31V32H113c2.76,0,5-2.24,5-5V5c0-2.76-2.24-5-5-5Z"/>
      <path class="cls-3" d="M31,0H5C2.24,0,0,2.24,0,5V27c0,2.76,2.24,5,5,5H31V0Z"/>
      <path class="cls-1" d="M9.93,26H5.36V11.31h4.56v14.69ZM7.64,9.31c-1.46,0-2.64-1.21-2.64-2.67,0-.7,.28-1.37,.77-1.87,.49-.5,1.17-.77,1.87-.77s1.37,.28,1.87,.77c.5,.5,.77,1.17,.77,1.87,0,1.46-1.18,2.67-2.64,2.67ZM27,26h-4.55v-7.15c0-1.7-.03-3.89-2.37-3.89s-2.74,1.85-2.74,3.77v7.27h-4.56V11.31h4.37v2h.06c.61-1.15,2.1-2.37,4.32-2.37,4.62,0,5.46,3.04,5.46,6.99v8.07h0Z"/>
      <path class="cls-1" d="M50.84,22h-6.26V11.5h2.37v8.58h3.89v1.92Zm2.81-8.69c-.39,0-.71-.11-.96-.34-.25-.23-.37-.52-.37-.86s.12-.63,.37-.85,.57-.33,.96-.33,.71,.11,.96,.33c.25,.22,.37,.5,.37,.85s-.12,.64-.37,.86c-.24,.22-.56,.34-.96,.34Zm1.14,8.69h-2.32v-7.5h2.32v7.5Zm9.37,0h-2.31v-4.17c0-1.16-.42-1.74-1.24-1.74-.4,0-.73,.15-.99,.46-.26,.31-.39,.7-.39,1.17v4.28h-2.31v-7.5h2.31v1.19h.03c.55-.91,1.36-1.37,2.41-1.37,1.66,0,2.49,1.03,2.49,3.09v4.59Zm9.53,0h-2.78l-2.4-3.72h-.03v3.72h-2.31V10.9h2.31v7.07h.03l2.23-3.46h2.75l-2.69,3.52,2.88,3.98Zm7.58-3.09h-4.89c.08,1.09,.76,1.63,2.06,1.63,.83,0,1.55-.2,2.18-.59v1.67c-.69,.37-1.59,.56-2.7,.56-1.21,0-2.15-.33-2.82-1-.67-.67-1-1.61-1-2.81s.36-2.23,1.08-2.96,1.61-1.09,2.67-1.09,1.94,.32,2.53,.97c.6,.65,.9,1.53,.9,2.64v.97Zm-2.15-1.42c0-1.07-.43-1.61-1.3-1.61-.37,0-.69,.15-.97,.46-.27,.31-.43,.69-.49,1.15h2.76Zm11.04,4.51h-2.32v-1.03h-.03c-.53,.81-1.3,1.22-2.32,1.22-.94,0-1.69-.33-2.26-.99-.57-.66-.86-1.59-.86-2.78s.32-2.23,.95-2.98c.63-.75,1.45-1.12,2.48-1.12,.97,0,1.64,.35,2.02,1.04h.03v-4.46h2.32v11.1Zm-2.27-3.65v-.56c0-.49-.14-.89-.42-1.22-.28-.32-.65-.48-1.11-.48-.51,0-.91,.2-1.2,.61-.29,.4-.43,.95-.43,1.66,0,.66,.14,1.17,.42,1.52,.28,.36,.66,.53,1.16,.53s.85-.19,1.14-.56c.3-.38,.45-.87,.45-1.49Zm7.26,3.65h-2.37V11.5h2.37v10.5Zm9.86,0h-2.31v-4.17c0-1.16-.42-1.74-1.24-1.74-.4,0-.73,.15-.99,.46-.26,.31-.39,.7-.39,1.17v4.28h-2.32v-7.5h2.32v1.19h.03c.55-.91,1.35-1.37,2.41-1.37,1.66,0,2.49,1.03,2.49,3.09v4.59Z"/>
    </g>
  </g>
</svg>