<?xml version="1.0" encoding="UTF-8"?>
<svg id="Layer_2" data-name="Layer 2" xmlns="http://www.w3.org/2000/svg" viewBox="0 0 130 32">
  <defs>
    <style>
      .cls-1 {
        fill: #db4126;
      }

      .cls-2 {
        fill: #fff;
      }

      .cls-3 {
        fill: #111519;
      }
    </style>
  </defs>
  <g id="Layer_1-2" data-name="Layer 1">
    <g>
      <path class="cls-3" d="M125,0H31V32H125c2.76,0,5-2.24,5-5V5c0-2.76-2.24-5-5-5Z"/>
      <path class="cls-1" d="M31,0H5C2.24,0,0,2.24,0,5V27c0,2.76,2.24,5,5,5H31V0Z"/>
      <path class="cls-2" d="M17.93,7.82c.04,.36,.03,17.04-.01,17.27-4.24-.58-8.47-1.16-12.71-1.74,.07,.07,.15,.11,.23,.14,4.1,1.51,8.19,3.02,12.29,4.53,.16,.06,.3,.06,.46,.02,1.66-.46,3.32-.91,4.97-1.37,.65-.18,1.3-.36,1.96-.54V6.09s-.08-.03-.11-.04c-2.29-.66-4.57-1.31-6.86-1.98-.16-.05-.29-.02-.43,.03-4.16,1.56-8.33,3.12-12.49,4.68-.07,.03-.16,.04-.22,.12,0,4.74,0,9.49,0,14.24,0,.04,0,.09,0,.13,0,0,0,.01,.02,.02,0,0,.02,0,.02,.01,1.46-.57,2.91-1.14,4.38-1.71V9.84c2.84-.68,5.67-1.35,8.5-2.03Z"/>
      <path class="cls-2" d="M49.08,21.18c-1.5,0-2.73-.49-3.68-1.46-.95-.98-1.42-2.26-1.42-3.83,0-1.66,.48-3,1.44-4.03,.96-1.03,2.24-1.54,3.82-1.54,1.5,0,2.71,.49,3.63,1.47,.93,.98,1.39,2.28,1.39,3.88s-.48,2.98-1.44,3.99c-.96,1.01-2.21,1.52-3.75,1.52Zm.1-8.83c-.83,0-1.49,.31-1.98,.94-.49,.62-.73,1.44-.73,2.47s.24,1.86,.73,2.47c.49,.61,1.13,.91,1.92,.91s1.46-.29,1.94-.88c.48-.59,.72-1.41,.72-2.45s-.23-1.94-.7-2.54c-.46-.61-1.1-.91-1.9-.91Zm11.95-.69c-.3-.12-.58-.18-.86-.18-.74,0-1.11,.4-1.11,1.21v.8h1.71v1.71h-1.71v5.79h-2.31v-5.79h-1.26v-1.71h1.26v-.93c0-.85,.28-1.54,.84-2.07s1.31-.78,2.27-.78c.47,0,.86,.05,1.17,.15v1.8Zm5.94,0c-.3-.12-.58-.18-.86-.18-.74,0-1.11,.4-1.11,1.21v.8h1.71v1.71h-1.71v5.79h-2.31v-5.79h-1.26v-1.71h1.26v-.93c0-.85,.28-1.54,.84-2.07,.56-.52,1.31-.78,2.27-.78,.47,0,.86,.05,1.17,.15v1.8Zm2.22,.64c-.39,0-.71-.11-.96-.34-.25-.23-.37-.52-.37-.86s.12-.63,.37-.85c.25-.22,.57-.33,.96-.33s.72,.11,.96,.33c.25,.22,.37,.5,.37,.85s-.12,.64-.37,.86c-.24,.22-.56,.34-.96,.34Zm1.14,8.69h-2.32v-7.5h2.32v7.5Zm7.81-.27c-.52,.3-1.28,.45-2.26,.45-1.15,0-2.08-.35-2.8-1.05-.71-.7-1.07-1.6-1.07-2.7,0-1.27,.38-2.28,1.14-3.01,.77-.74,1.79-1.11,3.07-1.11,.88,0,1.52,.12,1.92,.35v1.96c-.48-.36-1.02-.54-1.62-.54-.66,0-1.19,.2-1.58,.59-.39,.39-.58,.92-.58,1.6s.19,1.19,.56,1.57c.37,.38,.88,.56,1.53,.56,.58,0,1.14-.18,1.69-.54v1.86Zm8.44-2.82h-4.89c.08,1.09,.76,1.63,2.06,1.63,.83,0,1.55-.2,2.18-.59v1.67c-.69,.37-1.59,.56-2.7,.56-1.21,0-2.15-.33-2.82-1-.67-.67-1-1.61-1-2.81s.36-2.23,1.08-2.96c.72-.73,1.61-1.09,2.67-1.09s1.94,.32,2.53,.97c.6,.65,.9,1.53,.9,2.64v.97Zm-2.15-1.42c0-1.07-.43-1.61-1.3-1.61-.37,0-.69,.15-.97,.46-.27,.31-.43,.69-.49,1.15h2.76Zm7.91,4.17v-2.01c.7,.51,1.52,.77,2.46,.77,.59,0,1.05-.13,1.38-.38,.33-.25,.5-.61,.5-1.06s-.21-.83-.62-1.08c-.4-.25-.96-.38-1.68-.38h-.97v-1.77h.9c1.37,0,2.05-.45,2.05-1.36,0-.85-.53-1.28-1.58-1.28-.7,0-1.39,.23-2.05,.68v-1.89c.74-.37,1.6-.56,2.58-.56,1.08,0,1.91,.24,2.51,.73,.6,.48,.9,1.11,.9,1.88,0,1.37-.7,2.23-2.09,2.58v.04c.74,.09,1.33,.36,1.76,.81,.43,.44,.64,.99,.64,1.64,0,.98-.36,1.76-1.08,2.33-.72,.57-1.71,.86-2.97,.86-1.08,0-1.97-.18-2.64-.53Zm16.08-3.15c0,.52-.09,1-.27,1.45-.18,.45-.43,.84-.76,1.17-.32,.33-.71,.59-1.15,.78-.44,.19-.93,.28-1.46,.28-.59,0-1.12-.11-1.59-.33-.46-.22-.86-.54-1.18-.95-.32-.42-.57-.93-.74-1.54-.17-.61-.26-1.29-.26-2.06,0-.9,.11-1.72,.33-2.45,.22-.74,.54-1.37,.95-1.89,.42-.52,.92-.93,1.5-1.21,.59-.29,1.24-.43,1.98-.43,.81,0,1.44,.1,1.89,.29v1.93c-.53-.3-1.11-.45-1.74-.45-.39,0-.74,.08-1.06,.23-.32,.15-.59,.37-.82,.64-.23,.28-.4,.62-.54,1.01-.13,.39-.2,.83-.21,1.31h.04c.5-.69,1.23-1.03,2.21-1.03,.43,0,.83,.08,1.18,.23,.35,.16,.65,.38,.9,.67,.25,.28,.44,.62,.58,1.03,.14,.4,.21,.84,.21,1.33Zm-2.26,.15c0-1.13-.46-1.69-1.38-1.69-.21,0-.4,.04-.57,.12-.17,.08-.32,.19-.44,.33s-.22,.31-.29,.51c-.06,.19-.09,.4-.09,.64,0,.26,.03,.5,.1,.73s.16,.42,.29,.59c.13,.17,.28,.3,.45,.4,.17,.1,.36,.15,.57,.15s.4-.04,.56-.12c.17-.09,.32-.21,.43-.36,.12-.16,.22-.34,.28-.56,.06-.22,.09-.46,.09-.72Zm3.98,3.08v-1.98c.72,.44,1.48,.66,2.29,.66,.61,0,1.09-.14,1.43-.43,.35-.29,.52-.69,.52-1.19,0-1.04-.73-1.56-2.2-1.56-.54,0-1.17,.04-1.88,.12l.4-5.86h5.56v1.89h-3.79l-.15,2.1c.38-.03,.7-.04,.97-.04,1.08,0,1.92,.28,2.53,.85,.61,.57,.92,1.33,.92,2.29,0,1.06-.36,1.93-1.09,2.6-.73,.67-1.71,1-2.96,1-1.01,0-1.86-.15-2.55-.45Z"/>
    </g>
  </g>
</svg>