<?xml version="1.0" encoding="UTF-8"?>
<svg id="Layer_2" data-name="Layer 2" xmlns="http://www.w3.org/2000/svg" viewBox="0 0 86 32">
  <defs>
    <style>
      .cls-1 {
        fill: #fff;
      }

      .cls-2 {
        fill: #111519;
      }

      .cls-3 {
        fill: #605ba8;
      }
    </style>
  </defs>
  <g id="Layer_1-2" data-name="Layer 1">
    <g>
      <path class="cls-2" d="M81,0H31V32h50c2.76,0,5-2.24,5-5V5c0-2.76-2.24-5-5-5Z"/>
      <path class="cls-3" d="M31,0H5C2.24,0,0,2.24,0,5V27c0,2.76,2.24,5,5,5H31V0Z"/>
      <path class="cls-1" d="M5,8.03l9.02-1.24V15.5H5v-7.47Zm0,15.94l9.02,1.24v-8.6H5v7.36Zm10.01,1.38l11.99,1.65v-10.39H15.01v8.74Zm0-18.69V15.5h11.99V5l-11.99,1.65Z"/>
      <path class="cls-1" d="M52.43,18.38v3.62h-2.37V11.5h3.71c2.65,0,3.97,1.12,3.97,3.35,0,1.05-.38,1.91-1.14,2.56-.76,.65-1.77,.97-3.04,.97h-1.13Zm0-5.07v3.27h.93c1.26,0,1.89-.55,1.89-1.65s-.63-1.62-1.89-1.62h-.93Zm15.08,8.31c-.77,.37-1.77,.56-3,.56-1.61,0-2.88-.47-3.8-1.42-.92-.95-1.39-2.21-1.39-3.79,0-1.68,.52-3.04,1.55-4.09,1.04-1.05,2.39-1.57,4.04-1.57,1.03,0,1.89,.13,2.59,.39v2.28c-.7-.42-1.5-.63-2.4-.63-.99,0-1.78,.31-2.39,.93-.61,.62-.91,1.46-.91,2.52s.29,1.83,.86,2.43c.57,.6,1.34,.9,2.31,.9s1.77-.23,2.53-.67v2.16Z"/>
    </g>
  </g>
</svg>