<?xml version="1.0" encoding="UTF-8"?>
<svg id="Layer_2" data-name="Layer 2" xmlns="http://www.w3.org/2000/svg" xmlns:xlink="http://www.w3.org/1999/xlink" viewBox="0 0 121 32">
  <defs>
    <style>
      .cls-1 {
        fill: #fff;
      }

      .cls-2 {
        fill: #111519;
      }

      .cls-3 {
        fill: url(#linear-gradient);
      }
    </style>
    <linearGradient id="linear-gradient" x1="11.47" y1="-2420.81" x2="18.08" y2="-2389.15" gradientTransform="translate(0 -2383.28) scale(1 -1)" gradientUnits="userSpaceOnUse">
      <stop offset="0" stop-color="#54bd82"/>
      <stop offset=".16" stop-color="#55bd81"/>
      <stop offset=".3" stop-color="#58bd7f"/>
      <stop offset=".44" stop-color="#61bf7b"/>
      <stop offset=".56" stop-color="#71c278"/>
      <stop offset=".69" stop-color="#86c774"/>
      <stop offset=".81" stop-color="#a5d16e"/>
      <stop offset=".93" stop-color="#cedf6a"/>
      <stop offset="1" stop-color="#f1eb5e"/>
    </linearGradient>
  </defs>
  <g id="Layer_1-2" data-name="Layer 1">
    <g>
      <path class="cls-2" d="M116,0H31V32H116c2.76,0,5-2.24,5-5V5c0-2.76-2.24-5-5-5Z"/>
      <path class="cls-3" d="M31,0H5C2.24,0,0,2.24,0,5V27c0,2.76,2.24,5,5,5H31V0Z"/>
      <path d="M27,5H5V27H27V5Z"/>
      <path class="cls-1" d="M15.34,22.87H7.09v1.38H15.34v-1.38Z"/>
      <path class="cls-1" d="M6.99,7.9h3.72c2.19,0,3.51,1.27,3.51,3.16v.05c0,2.09-1.63,3.21-3.67,3.21h-1.53v2.7h-1.99V7.9h-.05Zm3.62,4.58c1.02,0,1.58-.61,1.58-1.38v-.05c0-.92-.61-1.38-1.63-1.38h-1.53v2.8h1.58Z"/>
      <path class="cls-1" d="M15.03,12.49c0-2.6,1.93-4.74,4.74-4.74,1.73,0,2.75,.56,3.62,1.43l-1.27,1.48c-.71-.66-1.43-1.02-2.34-1.02-1.53,0-2.65,1.27-2.65,2.85v-.05c0,1.58,1.07,2.85,2.65,2.85,1.02,0,1.68-.41,2.39-1.07l1.27,1.27c-.92,1.02-1.99,1.63-3.72,1.63-2.7,.05-4.68-2.04-4.68-4.63Z"/>
      <path class="cls-1" d="M47.01,17.38v3.62h-2.37V10.5h3.71c2.65,0,3.97,1.12,3.97,3.35,0,1.05-.38,1.91-1.14,2.56-.76,.65-1.77,.97-3.04,.97h-1.13Zm0-5.07v3.27h.93c1.26,0,1.89-.55,1.89-1.66s-.63-1.62-1.89-1.62h-.93Zm14.21,1.19l-3.05,8.1c-.73,1.95-1.84,2.92-3.31,2.92-.56,0-1.02-.06-1.38-.19v-1.85c.31,.18,.64,.27,1,.27,.6,0,1.01-.28,1.24-.84l.4-.93-3.05-7.49h2.56l1.4,4.56c.09,.28,.16,.62,.2,1h.03c.04-.28,.12-.61,.24-.99l1.41-4.58h2.29Zm9.13,7.13c-.77,.37-1.77,.56-3,.56-1.61,0-2.88-.47-3.8-1.42-.92-.95-1.38-2.21-1.38-3.79,0-1.68,.52-3.04,1.55-4.09,1.04-1.04,2.39-1.57,4.04-1.57,1.03,0,1.89,.13,2.59,.39v2.28c-.7-.42-1.5-.63-2.4-.63-.99,0-1.78,.31-2.39,.93-.6,.62-.91,1.46-.91,2.52s.29,1.83,.86,2.43c.57,.6,1.34,.9,2.31,.9s1.77-.22,2.53-.67v2.16Zm9.25,.37h-2.31v-4.26c0-1.1-.4-1.65-1.2-1.65-.41,0-.74,.15-1,.46-.25,.31-.38,.7-.38,1.17v4.28h-2.31V9.9h2.31v4.72h.03c.57-.86,1.33-1.3,2.31-1.3,1.7,0,2.55,1.03,2.55,3.08v4.61Zm8.26,0h-2.19v-1.08h-.03c-.5,.84-1.25,1.26-2.23,1.26-.73,0-1.3-.21-1.72-.62-.42-.42-.62-.97-.62-1.66,0-1.46,.86-2.29,2.59-2.52l2.04-.27c0-.82-.44-1.23-1.33-1.23s-1.74,.27-2.55,.8v-1.74c.32-.17,.76-.31,1.32-.44,.56-.13,1.07-.19,1.53-.19,2.14,0,3.21,1.07,3.21,3.2v4.48Zm-2.18-3.05v-.51l-1.36,.18c-.75,.1-1.13,.44-1.13,1.02,0,.26,.09,.48,.27,.65,.18,.17,.43,.25,.75,.25,.43,0,.79-.15,1.06-.45,.27-.3,.41-.68,.41-1.14Zm9.08-2.37c-.28-.15-.6-.23-.97-.23-.5,0-.9,.19-1.18,.56-.28,.37-.43,.87-.43,1.5v3.58h-2.31v-7.5h2.31v1.39h.03c.37-1.02,1.03-1.52,1.98-1.52,.24,0,.43,.03,.57,.09v2.13Zm13.22,5.41h-2.31v-4.28c0-1.09-.4-1.63-1.2-1.63-.38,0-.69,.16-.93,.49-.24,.33-.36,.73-.36,1.22v4.2h-2.32v-4.32c0-1.06-.39-1.59-1.18-1.59-.4,0-.71,.16-.95,.47-.23,.31-.35,.74-.35,1.27v4.17h-2.31v-7.5h2.31v1.17h.03c.24-.4,.57-.73,1-.97,.43-.25,.91-.38,1.42-.38,1.06,0,1.79,.47,2.18,1.4,.57-.93,1.41-1.4,2.52-1.4,1.63,0,2.45,1.01,2.45,3.02v4.67Z"/>
    </g>
  </g>
</svg>