<?xml version="1.0" encoding="UTF-8"?>
<svg id="Layer_2" data-name="Layer 2" xmlns="http://www.w3.org/2000/svg" viewBox="0 0 107 32">
  <defs>
    <style>
      .cls-1 {
        fill: #fff;
      }

      .cls-2 {
        fill: #376e9c;
      }

      .cls-3 {
        fill: #111519;
      }
    </style>
  </defs>
  <g id="Layer_1-2" data-name="Layer 1">
    <g>
      <path class="cls-3" d="M102,0H31V32H102c2.76,0,5-2.24,5-5V5c0-2.76-2.24-5-5-5Z"/>
      <path class="cls-2" d="M31,0H5C2.24,0,0,2.24,0,5V27c0,2.76,2.24,5,5,5H31V0Z"/>
      <path class="cls-1" d="M27.56,13.03c-.41-1.66-1.19-2.9-2.86-2.9h-2.15v2.54c0,1.97-1.67,3.63-3.58,3.63h-5.72c-1.56,0-2.86,1.34-2.86,2.91v5.45c0,1.55,1.35,2.46,2.86,2.91,1.81,.53,3.55,.63,5.72,0,1.44-.42,2.86-1.26,2.86-2.91v-2.18h-5.72v-.73h8.58c1.67,0,2.28-1.16,2.86-2.9,.6-1.79,.57-3.52,0-5.82Zm-8.23,10.9c.6,0,1.08,.49,1.08,1.09s-.48,1.09-1.08,1.09-1.08-.49-1.08-1.09c0-.61,.49-1.09,1.08-1.09Zm-6.34-8.35h5.72c1.59,0,2.86-1.31,2.86-2.91V7.21c0-1.55-1.31-2.72-2.86-2.98-1.92-.32-4-.3-5.72,0-2.42,.43-2.86,1.32-2.86,2.98v2.18h5.73v.73H7.98c-1.67,0-3.12,1-3.58,2.9-.52,2.18-.55,3.54,0,5.82,.41,1.69,1.38,2.9,3.04,2.9h1.97v-2.61c0-1.89,1.63-3.56,3.58-3.56Zm-.36-7.64c-.59,0-1.08-.49-1.08-1.09,0-.61,.48-1.09,1.08-1.09s1.08,.49,1.08,1.09-.48,1.09-1.08,1.09Z"/>
      <path class="cls-1" d="M46.89,18.38v3.62h-2.36V11.5h3.71c2.65,0,3.97,1.12,3.97,3.35,0,1.05-.38,1.91-1.14,2.56-.76,.65-1.77,.97-3.04,.97h-1.13Zm0-5.07v3.27h.93c1.26,0,1.89-.55,1.89-1.66s-.63-1.62-1.89-1.62h-.93Zm14.21,1.19l-3.05,8.1c-.73,1.95-1.84,2.92-3.31,2.92-.56,0-1.02-.06-1.39-.19v-1.85c.31,.18,.64,.27,1,.27,.6,0,1.01-.28,1.25-.84l.4-.93-3.05-7.49h2.56l1.4,4.56c.09,.28,.16,.62,.21,1h.03c.04-.28,.12-.61,.24-.99l1.41-4.58h2.29Zm5.67,7.41c-.34,.18-.86,.27-1.54,.27-1.63,0-2.45-.85-2.45-2.54v-3.44h-1.22v-1.71h1.22v-1.62l2.31-.66v2.28h1.68v1.71h-1.68v3.03c0,.78,.31,1.17,.93,1.17,.24,0,.5-.07,.75-.21v1.71Zm8.69,.09h-2.31v-4.26c0-1.1-.4-1.65-1.2-1.65-.41,0-.74,.15-1,.46-.25,.31-.38,.7-.38,1.17v4.28h-2.32V10.9h2.32v4.72h.03c.57-.86,1.34-1.3,2.31-1.3,1.7,0,2.55,1.03,2.55,3.08v4.61Zm5.59,.18c-1.25,0-2.23-.35-2.95-1.05-.71-.7-1.07-1.66-1.07-2.86s.37-2.21,1.11-2.91c.74-.7,1.75-1.05,3.01-1.05s2.22,.35,2.93,1.05c.71,.7,1.06,1.62,1.06,2.78,0,1.25-.37,2.23-1.1,2.95-.73,.72-1.73,1.08-2.99,1.08Zm.06-6.09c-.55,0-.97,.19-1.27,.56-.3,.38-.45,.91-.45,1.6,0,1.44,.58,2.16,1.74,2.16s1.66-.74,1.66-2.22c0-1.4-.56-2.1-1.68-2.1Zm12.96,5.91h-2.31v-4.17c0-1.16-.42-1.74-1.24-1.74-.4,0-.73,.15-.99,.46-.26,.31-.39,.7-.39,1.17v4.28h-2.32v-7.5h2.32v1.19h.03c.55-.91,1.35-1.37,2.41-1.37,1.66,0,2.49,1.03,2.49,3.09v4.59Z"/>
    </g>
  </g>
</svg>