<?xml version="1.0" encoding="UTF-8"?>
<svg id="Layer_2" data-name="Layer 2" xmlns="http://www.w3.org/2000/svg" viewBox="0 0 148 32">
  <defs>
    <style>
      .cls-1 {
        fill: #fff;
      }

      .cls-2 {
        fill: #111519;
      }

      .cls-3 {
        fill: #ed1c53;
      }
    </style>
  </defs>
  <g id="Layer_1-2" data-name="Layer 1">
    <g>
      <path class="cls-2" d="M143,0H31V32h112c2.76,0,5-2.24,5-5V5c0-2.76-2.24-5-5-5Z"/>
      <path class="cls-3" d="M31,0H5C2.24,0,0,2.24,0,5V27c0,2.76,2.24,5,5,5H31V0Z"/>
      <path class="cls-1" d="M24.43,14.9l-.17-.31c0-2.17-1-3.06-2.18-3.73,.36-.09,.72-.17,.83-.62,.61-.15,.74-.44,.8-.74,.16-.11,.69-.41,.64-.92,.3-.21,.47-.47,.38-.85,.32-.35,.41-.64,.27-.91,.39-.48,.22-.73,.05-.98,.29-.52,.03-1.09-.78-.99-.32-.47-1.03-.37-1.13-.37-.12-.15-.28-.28-.77-.22-.32-.29-.67-.23-1.04-.1-.43-.34-.73-.07-1.06,.04-.53-.17-.65,.06-.91,.16-.58-.12-.75,.14-1.03,.42h-.32c-.87,.5-1.3,1.53-1.46,2.06-.15-.53-.59-1.56-1.46-2.07h-.32c-.28-.27-.46-.53-1.03-.41-.26-.09-.38-.33-.91-.16-.22-.07-.42-.21-.65-.2-.12,0-.26,.05-.41,.16-.37-.14-.73-.19-1.04,.1-.49-.06-.66,.07-.77,.22-.11,0-.81-.11-1.13,.37-.81-.09-1.06,.47-.77,.99-.16,.25-.34,.5,.05,.98-.14,.27-.05,.56,.27,.91-.08,.38,.08,.64,.38,.85-.06,.52,.48,.82,.64,.92,.06,.3,.19,.58,.8,.74,.1,.45,.47,.53,.82,.62-1.18,.67-2.18,1.56-2.18,3.73l-.17,.31c-1.35,.81-2.56,3.41-.67,5.52,.12,.66,.33,1.13,.52,1.66,.28,2.12,2.08,3.11,2.56,3.22,.7,.52,1.44,1.02,2.45,1.37,.95,.96,1.98,1.33,3.01,1.33h.05c1.04,0,2.06-.37,3.01-1.33,1.01-.35,1.75-.84,2.45-1.37,.48-.12,2.28-1.11,2.56-3.22,.18-.52,.39-1,.52-1.66,1.9-2.11,.69-4.71-.66-5.52Zm-1.04-.38c-.07,.88-4.63-3.05-3.85-3.18,2.14-.35,3.92,.9,3.85,3.18Zm-2.01,4.36c-1.15,.74-2.8,.26-3.69-1.07-.89-1.33-.68-3.01,.46-3.75,1.15-.74,2.8-.26,3.69,1.07,.89,1.33,.68,3.01-.46,3.75Zm-3.18-13.51c.04,.2,.08,.32,.14,.36,.25-.27,.46-.55,.79-.81,0,.15-.08,.32,.12,.44,.17-.23,.41-.45,.73-.62-.15,.26-.03,.34,.06,.45,.24-.21,.47-.41,.91-.58-.12,.14-.29,.29-.11,.46,.25-.15,.5-.31,1.08-.42-.13,.15-.41,.3-.24,.44,.31-.12,.66-.21,1.04-.25-.18,.15-.33,.3-.18,.41,.33-.1,.79-.24,1.24-.12l-.28,.29s.66,.03,1.12,.04c-.17,.23-.34,.45-.43,.85,.05,.05,.27,.02,.49,0-.22,.46-.6,.58-.69,.78,.14,.1,.32,.08,.52,0-.16,.32-.49,.55-.75,.81,.07,.05,.18,.07,.45,.04-.24,.26-.54,.49-.88,.7,.06,.07,.27,.07,.47,.08-.31,.3-.72,.46-1.1,.66,.19,.13,.32,.1,.47,.1-.27,.22-.72,.33-1.14,.47,.08,.13,.16,.16,.33,.19-.45,.25-1.09,.14-1.27,.26,.04,.13,.17,.21,.31,.27-.72,.04-2.69-.03-3.06-1.51,.74-.81,2.08-1.76,4.39-2.93-1.8,.6-3.42,1.41-4.78,2.51-1.61-.74-.51-2.62,.27-3.36Zm-1.61,5.37c1.13-.01,2.54,.83,2.53,1.63,0,.7-.98,1.27-2.52,1.26-1.5-.02-2.52-.71-2.51-1.4,0-.56,1.23-1.52,2.5-1.49Zm-5.76-.6c.17-.03,.25-.07,.33-.19-.42-.13-.88-.25-1.14-.47,.14,0,.28,.03,.47-.1-.38-.2-.78-.36-1.1-.66,.2,0,.41,0,.47-.08-.35-.21-.64-.45-.88-.7,.27,.03,.39,0,.46-.04-.26-.26-.6-.49-.75-.81,.2,.07,.39,.09,.52,0-.09-.2-.47-.31-.69-.78,.22,.02,.44,.05,.49,0-.1-.4-.27-.62-.43-.85,.46,0,1.15,0,1.12-.04l-.28-.29c.45-.12,.9,.02,1.24,.12,.15-.12,0-.26-.18-.41,.38,.05,.72,.14,1.04,.25,.16-.14-.11-.29-.24-.44,.59,.11,.83,.26,1.08,.42,.18-.17,0-.31-.11-.46,.44,.16,.67,.37,.91,.58,.08-.11,.21-.19,.06-.45,.31,.18,.55,.39,.73,.62,.19-.12,.12-.29,.12-.44,.33,.26,.54,.54,.79,.81,.05-.04,.09-.16,.14-.36,.78,.74,1.88,2.62,.28,3.36-1.36-1.1-2.98-1.91-4.78-2.51,2.31,1.17,3.65,2.12,4.39,2.93-.38,1.49-2.34,1.56-3.07,1.51,.14-.07,.27-.15,.31-.27-.19-.13-.82-.02-1.27-.26Zm2.82,1.13c.79,.13-3.78,4.05-3.85,3.18-.07-2.28,1.71-3.54,3.85-3.18Zm-4.85,8.75c-1.11-.88-1.47-3.45,.59-4.61,1.24-.33,.42,5.05-.59,4.61Zm4.26,4.6c-.62,.37-2.15,.22-3.22-1.31-.73-1.28-.63-2.59-.12-2.97,.76-.46,1.94,.16,2.85,1.2,.79,.94,1.15,2.59,.49,3.08Zm-1.24-5.61c-1.15-.74-1.35-2.42-.46-3.75,.89-1.33,2.54-1.81,3.69-1.07,1.15,.74,1.36,2.42,.46,3.75-.9,1.33-2.55,1.81-3.69,1.07Zm4.79,8.22c-1.38,.06-2.73-1.11-2.71-1.51-.02-.6,1.68-1.06,2.78-1.03,1.11-.05,2.61,.35,2.61,.89,.02,.52-1.35,1.68-2.68,1.66Zm2.76-5.85c0,1.39-1.23,2.52-2.76,2.53-1.53,0-2.77-1.12-2.78-2.5v-.03c-.01-1.39,1.23-2.52,2.76-2.53,1.53-.01,2.77,1.11,2.78,2.5v.03Zm3.85,2c-1.19,1.62-2.79,1.68-3.39,1.23-.62-.58-.15-2.39,.71-3.37,.98-1.09,2.03-1.8,2.76-1.25,.49,.48,.78,2.3-.08,3.39Zm1.07-3.43c-1.01,.44-1.83-4.93-.59-4.61,2.06,1.16,1.7,3.73,.59,4.61Z"/>
      <path class="cls-1" d="M53.54,22h-2.72l-1.63-2.7c-.12-.2-.24-.39-.35-.55-.11-.16-.23-.3-.35-.41-.11-.12-.23-.21-.36-.26-.12-.06-.26-.1-.4-.1h-.64v4.02h-2.37V11.5h3.75c2.55,0,3.82,.95,3.82,2.86,0,.37-.06,.7-.17,1.02-.11,.31-.27,.59-.48,.83-.21,.25-.45,.46-.75,.64-.29,.18-.61,.32-.97,.42v.03c.16,.05,.31,.13,.45,.24,.15,.11,.29,.23,.43,.38,.14,.15,.27,.3,.39,.48,.13,.17,.24,.33,.34,.49l1.98,3.11Zm-6.44-8.73v2.92h1.02c.51,0,.92-.15,1.22-.44,.31-.3,.47-.67,.47-1.11,0-.92-.55-1.38-1.65-1.38h-1.07Zm13.89,8.73h-2.19v-1.08h-.03c-.5,.84-1.25,1.26-2.23,1.26-.73,0-1.3-.21-1.72-.62-.42-.41-.62-.97-.62-1.65,0-1.45,.86-2.29,2.58-2.52l2.04-.27c0-.82-.44-1.23-1.33-1.23s-1.74,.27-2.55,.8v-1.74c.32-.17,.76-.31,1.32-.44,.56-.13,1.07-.19,1.53-.19,2.14,0,3.21,1.07,3.21,3.2v4.48Zm-2.17-3.05v-.51l-1.36,.18c-.75,.1-1.13,.44-1.13,1.02,0,.26,.09,.48,.27,.65,.18,.17,.43,.25,.75,.25,.43,0,.79-.15,1.06-.45,.27-.3,.41-.68,.41-1.14Zm3.7,2.85v-1.88c.38,.23,.76,.4,1.14,.51,.38,.11,.74,.17,1.08,.17,.41,0,.73-.06,.97-.17,.24-.11,.36-.28,.36-.51,0-.15-.05-.27-.16-.37-.11-.1-.25-.18-.42-.26-.17-.07-.35-.14-.55-.2-.2-.06-.39-.12-.58-.2-.3-.11-.56-.23-.79-.36-.23-.13-.42-.28-.57-.45-.15-.17-.27-.37-.35-.59-.08-.22-.12-.49-.12-.8,0-.42,.09-.78,.27-1.08,.19-.3,.43-.55,.73-.74,.31-.2,.66-.34,1.05-.43,.4-.09,.81-.14,1.23-.14,.33,0,.67,.03,1.01,.08,.34,.05,.68,.12,1.01,.22v1.79c-.29-.17-.61-.3-.95-.38-.33-.09-.66-.13-.98-.13-.15,0-.29,.01-.43,.04-.13,.02-.25,.06-.35,.12-.1,.05-.18,.11-.24,.2-.06,.08-.09,.17-.09,.27,0,.14,.04,.25,.13,.35,.09,.1,.2,.18,.34,.26,.14,.07,.3,.13,.47,.19,.18,.05,.35,.11,.52,.17,.31,.11,.59,.23,.84,.35,.25,.13,.46,.28,.64,.45,.18,.17,.32,.37,.41,.6,.1,.23,.15,.5,.15,.82,0,.44-.1,.82-.29,1.14-.19,.31-.45,.57-.77,.77-.32,.2-.69,.34-1.11,.43-.42,.09-.85,.14-1.3,.14-.83,0-1.59-.13-2.29-.38Zm9.62-.67h-.03v4.32h-2.31V14.5h2.31v1.13h.03c.57-.87,1.37-1.31,2.41-1.31,.97,0,1.72,.33,2.25,1,.53,.66,.8,1.57,.8,2.72,0,1.25-.31,2.25-.93,3.01-.61,.76-1.43,1.14-2.46,1.14-.9,0-1.59-.35-2.07-1.06Zm-.07-3.08v.6c0,.52,.14,.94,.41,1.27,.27,.33,.63,.49,1.08,.49,.53,0,.93-.2,1.22-.61,.29-.41,.44-.99,.44-1.74,0-1.32-.51-1.98-1.54-1.98-.47,0-.86,.18-1.16,.54-.3,.36-.45,.83-.45,1.42Zm9.55,3.08h-.03v.87h-2.31V10.9h2.31v4.73h.03c.57-.87,1.38-1.31,2.44-1.31,.97,0,1.71,.33,2.23,1,.52,.66,.78,1.57,.78,2.73,0,1.25-.31,2.25-.92,3.01-.61,.76-1.43,1.14-2.45,1.14-.92,0-1.62-.35-2.1-1.06Zm-.07-3.16v.77c0,.48,.14,.88,.42,1.2,.28,.32,.64,.48,1.07,.48,.53,0,.93-.2,1.22-.61,.29-.41,.44-.99,.44-1.74,0-.62-.13-1.1-.4-1.45-.26-.35-.64-.53-1.14-.53-.46,0-.85,.17-1.16,.52-.3,.35-.45,.8-.45,1.35Zm13.94,.95h-4.89c.08,1.09,.76,1.63,2.06,1.63,.82,0,1.55-.2,2.18-.58v1.67c-.69,.37-1.6,.56-2.7,.56-1.21,0-2.15-.33-2.82-1-.67-.67-1-1.61-1-2.81s.36-2.23,1.08-2.96c.72-.73,1.61-1.09,2.67-1.09s1.94,.33,2.53,.97c.6,.65,.9,1.53,.9,2.64v.97Zm-2.15-1.42c0-1.07-.43-1.61-1.3-1.61-.37,0-.69,.15-.97,.46-.27,.31-.43,.69-.49,1.15h2.76Zm8.6-.9c-.28-.15-.6-.23-.97-.23-.5,0-.9,.19-1.18,.56-.28,.37-.43,.87-.43,1.5v3.58h-2.31v-7.5h2.31v1.39h.03c.37-1.02,1.03-1.52,1.98-1.52,.24,0,.44,.03,.57,.09v2.13Zm6.16,0c-.28-.15-.6-.23-.97-.23-.5,0-.9,.19-1.18,.56-.28,.37-.42,.87-.42,1.5v3.58h-2.32v-7.5h2.32v1.39h.03c.37-1.02,1.02-1.52,1.98-1.52,.24,0,.43,.03,.57,.09v2.13Zm9.01-2.09l-3.05,8.1c-.73,1.95-1.84,2.92-3.31,2.92-.56,0-1.02-.06-1.38-.19v-1.85c.31,.18,.64,.27,1,.27,.6,0,1.01-.28,1.24-.84l.4-.93-3.05-7.48h2.56l1.4,4.56c.09,.28,.16,.62,.21,1h.03c.04-.28,.12-.61,.24-.99l1.41-4.58h2.29Zm8.29,3.88v3.62h-2.37V11.5h3.71c2.65,0,3.97,1.12,3.97,3.35,0,1.05-.38,1.91-1.14,2.56-.76,.65-1.77,.97-3.04,.97h-1.13Zm0-5.07v3.27h.93c1.26,0,1.89-.55,1.89-1.65s-.63-1.62-1.89-1.62h-.93Zm8.24,0c-.39,0-.71-.11-.96-.34-.25-.23-.37-.52-.37-.86s.12-.63,.37-.85c.25-.22,.57-.33,.96-.33s.72,.11,.96,.33c.25,.22,.37,.5,.37,.85s-.12,.64-.37,.86c-.24,.22-.56,.34-.96,.34Zm1.14,8.69h-2.32v-7.5h2.32v7.5Z"/>
    </g>
  </g>
</svg>