<?xml version="1.0" encoding="UTF-8"?>
<svg id="Layer_2" data-name="Layer 2" xmlns="http://www.w3.org/2000/svg" viewBox="0 0 134.46 32.14">
  <defs>
    <style>
      .cls-1, .cls-2 {
        fill: #fff;
      }

      .cls-2 {
        font-family: SegoeUI-Bold, 'Segoe UI';
        font-size: 15.02px;
        font-weight: 700;
      }

      .cls-3 {
        fill: #111519;
      }

      .cls-4 {
        letter-spacing: -.02em;
      }

      .cls-5 {
        fill: #4bbea2;
      }

      .cls-6 {
        letter-spacing: 0em;
      }
    </style>
  </defs>
  <g id="Layer_1-2" data-name="Layer 1">
    <g>
      <path class="cls-3" d="M126.95,0H30.77V32H126.95c4.15,0,7.51-2.24,7.51-5V5c0-2.76-3.36-5-7.51-5Z"/>
      <path class="cls-5" d="M31,.14H5C2.24,.14,0,2.38,0,5.14V27.14c0,2.76,2.24,5,5,5H31V.14Z"/>
      <text class="cls-2" transform="translate(34.61 21.47)"><tspan class="cls-4" x="0" y="0">R</tspan><tspan x="9.43" y="0">esea</tspan><tspan class="cls-6" x="40.38" y="0">r</tspan><tspan x="46.29" y="0">chGa</tspan><tspan class="cls-6" x="81.31" y="0">t</tspan><tspan x="87.1" y="0">e </tspan></text>
      <path class="cls-1" d="M16.32,24.37c-1.74-.34-2.77-1.35-5.41-5.27q-.88-1.31-1.73-1.37c-1.25-.09-1.16-.3-1.12,2.46,.05,3.14,.01,3.07,1.82,3.37,.47,.07,.51,.11,.51,.39q0,.32-3.19,.34c-2.99,.02-3.19,.01-3.25-.17-.12-.35,.06-.52,.72-.64,.74-.13,1.13-.44,1.23-.95,.05-.19,.06-2.82,.04-5.84-.04-6.34,.04-5.96-1.13-6.22-.73-.16-.96-.33-.86-.62,.07-.19,.23-.21,3.55-.27,4.94-.1,5.86,.06,7.18,1.23,1.37,1.23,1.57,3.1,.47,4.67-.49,.71-1.46,1.46-2.21,1.74-.35,.13-.64,.28-.64,.33,0,.15,1.12,1.74,1.81,2.59,1.85,2.25,2.85,3.13,3.88,3.39,.64,.17,.83,.35,.64,.67-.19,.33-1.17,.4-2.31,.17Zm-4.66-8.07c2.43-1,2.62-4.34,.3-5.33-.6-.26-.75-.27-2.25-.27q-1.62,0-1.64,2.81c-.02,1.54-.01,2.88,.02,2.96,.11,.26,2.85,.12,3.56-.17Zm8.48-3.47c-1.89-.35-2.51-1.51-2.41-4.48,.05-1.64,.18-2.09,.82-2.77,1.12-1.2,3.89-1.09,4.91,.19,.44,.55,.4,.72-.21,.9q-.47,.16-.91-.28c-1.03-1-2.82-.63-3.14,.66-.16,.57-.15,2.99,.01,3.54,.43,1.54,2.99,1.54,3.43,0,.27-.99,.21-1.06-.97-1.12q-.57-.02-.57-.5t1.36-.5c1.76-.04,1.74-.06,1.65,1.23-.11,1.62-.55,2.4-1.61,2.86-.69,.29-1.64,.4-2.37,.27Z"/>
    </g>
  </g>
</svg>