<?xml version="1.0" encoding="UTF-8"?>
<svg id="Layer_2" data-name="Layer 2" xmlns="http://www.w3.org/2000/svg" viewBox="0 0 94.87 32">
  <defs>
    <style>
      .cls-1 {
        font-family: SegoeUI-Bold, 'Segoe UI';
        font-size: 15.02px;
        font-weight: 700;
      }

      .cls-1, .cls-2 {
        fill: #fff;
      }

      .cls-3 {
        fill: #111519;
      }

      .cls-2 {
        stroke: #1c2125;
      }

      .cls-4 {
        fill: #557ebf;
      }

      .cls-4, .cls-5, .cls-6 {
        fill-rule: evenodd;
      }

      .cls-7 {
        fill: #a7c1e5;
      }

      .cls-5 {
        fill: #3f6ab3;
      }

      .cls-6 {
        fill: #7fa3d6;
      }
    </style>
  </defs>
  <g id="Layer_1-2" data-name="Layer 1">
    <g>
      <path class="cls-3" d="M89.46,0H31V32h58.46c2.99,0,5.41-2.24,5.41-5V5c0-2.76-2.42-5-5.41-5Z"/>
      <text class="cls-1" transform="translate(36.56 21.47)"><tspan x="0" y="0">Scholar</tspan></text>
      <path class="cls-2" d="M5,.5H30.5V31.5H5c-2.49,0-4.5-2.01-4.5-4.5V5C.5,2.51,2.51,.5,5,.5Z"/>
      <g>
        <path class="cls-4" d="M15.5,22.34L5.04,13.82,15.5,5.54V22.34Z"/>
        <path class="cls-5" d="M15.5,22.34l10.46-8.51L15.5,5.54V22.34Z"/>
        <circle class="cls-7" cx="15.5" cy="20.36" r="6.1"/>
        <path class="cls-6" d="M9.99,17.74c.98-2.06,3.08-3.49,5.51-3.49s4.53,1.42,5.51,3.49H9.99Z"/>
      </g>
    </g>
  </g>
</svg>