<?xml version="1.0" encoding="UTF-8"?>
<svg id="Layer_2" data-name="Layer 2" xmlns="http://www.w3.org/2000/svg" viewBox="0 0 90 32">
  <defs>
    <style>
      .cls-1 {
        font-family: SegoeUI-Bold, 'Segoe UI';
        font-size: 15.02px;
        font-weight: 700;
      }

      .cls-1, .cls-2 {
        fill: #fff;
      }

      .cls-3 {
        fill: #111519;
      }

      .cls-2 {
        stroke: #1c2125;
      }

      .cls-4 {
        fill: #010101;
      }
    </style>
  </defs>
  <g id="Layer_1-2" data-name="Layer 1">
    <g>
      <path class="cls-3" d="M85,0H31V32h54c2.76,0,5-2.24,5-5V5c0-2.76-2.24-5-5-5Z"/>
      <path class="cls-2" d="M5,.5H30.5V31.5H5c-2.49,0-4.5-2.01-4.5-4.5V5C.5,2.51,2.51,.5,5,.5Z"/>
      <text class="cls-1" transform="translate(43.59 21.47)"><tspan x="0" y="0">Shell</tspan></text>
      <path class="cls-4" d="M24.41,22.72c-.17-.19-.24-.53-.33-.9s-.18-.76-.48-1.02h0c-.11-.1-.23-.17-.37-.22,.42-1.24,.26-2.48-.17-3.59-.52-1.37-1.42-2.57-2.11-3.38-.77-.98-1.53-1.9-1.52-3.27,.02-2.09,.23-5.96-3.45-5.97-.16,0-.31,0-.47,.02-4.11,.33-3.02,4.67-3.08,6.12-.07,1.06-.29,1.9-1.02,2.94-.86,1.02-2.07,2.67-2.64,4.39-.27,.81-.4,1.64-.28,2.42-.04,.03-.07,.07-.11,.1-.25,.27-.44,.6-.65,.81-.19,.19-.47,.27-.77,.38s-.64,.27-.84,.66h0c-.09,.18-.13,.37-.13,.57,0,.18,.03,.36,.05,.54,.06,.36,.11,.71,.04,.94-.24,.66-.27,1.11-.1,1.44,.17,.33,.52,.48,.91,.56,.79,.16,1.85,.12,2.7,.57l.07-.14-.07,.14c.9,.47,1.81,.64,2.54,.47,.53-.12,.96-.44,1.18-.92,.57,0,1.19-.24,2.2-.3,.68-.05,1.53,.24,2.5,.19,.03,.11,.06,.21,.12,.31,.38,.76,1.08,1.1,1.83,1.04s1.55-.5,2.19-1.27l-.12-.1,.12,.1c.61-.75,1.63-1.05,2.31-1.46,.34-.2,.61-.46,.63-.83,.02-.37-.2-.79-.7-1.34ZM15.34,9.08c0-.27,.04-.51,.15-.74s.23-.41,.42-.55,.36-.2,.58-.21h.01c.21,0,.39,.06,.57,.19,.19,.14,.32,.3,.43,.54,.11,.23,.16,.48,.16,.74,0,.27-.04,.51-.15,.74-.05,.13-.12,.24-.21,.35l-.09-.04c-.1-.04-.19-.08-.28-.11s-.14-.05-.21-.07c.05-.06,.14-.13,.18-.21,.05-.13,.08-.27,.08-.4v-.02c0-.13-.01-.27-.06-.39-.04-.13-.1-.23-.18-.31s-.16-.12-.26-.12h-.01c-.09,0-.18,.04-.25,.1-.09,.08-.16,.18-.2,.29-.05,.13-.08,.27-.08,.41v.02c0,.08,0,.16,.02,.23-.19-.09-.39-.15-.59-.2,0-.07-.02-.15-.02-.22v-.02h0Zm-2.5,.06c-.01-.24,.01-.44,.07-.65s.15-.36,.28-.49c.1-.12,.25-.19,.41-.2h.03c.14,0,.26,.05,.39,.15,.15,.12,.26,.28,.33,.45,.09,.2,.14,.4,.15,.64h0c0,.1,0,.19,0,.29-.03,0-.05,.02-.08,.02-.15,.05-.27,.11-.38,.18,.01-.08,.01-.17,0-.25h0c-.01-.12-.04-.23-.08-.33-.03-.09-.09-.17-.16-.24-.06-.05-.12-.08-.18-.07h-.02c-.07,0-.13,.04-.18,.11-.06,.08-.1,.17-.12,.26-.03,.11-.03,.23-.02,.34h0c.01,.13,.04,.23,.08,.33,.04,.1,.11,.19,.19,.26-.07,.05-.11,.09-.17,.13l-.13,.09c-.12-.11-.21-.25-.27-.4-.09-.2-.14-.42-.15-.64,0,0,0,0,0,0Zm.18,1.43c.22-.16,.37-.27,.47-.35,.1-.07,.14-.1,.17-.13h0c.16-.15,.42-.44,.81-.57,.13-.05,.29-.08,.45-.08,.32,0,.71,.1,1.18,.41,.29,.19,.51,.2,1.03,.42h0c.25,.1,.39,.24,.46,.37,.07,.14,.07,.29,.01,.45-.12,.32-.5,.65-1.03,.82h0c-.26,.08-.49,.27-.75,.42-.29,.18-.64,.27-.98,.25-.15,0-.3-.04-.44-.1-.11-.05-.22-.12-.31-.19-.19-.15-.35-.34-.59-.48h0c-.39-.22-.6-.48-.67-.7-.07-.22,0-.41,.19-.55Zm.15,15.17h0c-.05,.73-.46,1.12-1.09,1.27-.63,.14-1.48,0-2.33-.44h0c-.94-.5-2.06-.45-2.78-.6-.36-.07-.59-.19-.7-.4-.11-.21-.11-.58,.12-1.2h0s0,0,0,0c.11-.35,.03-.73-.02-1.09-.05-.36-.08-.68,.04-.91h0c.16-.3,.39-.41,.67-.51,.29-.1,.62-.18,.89-.45h0s0,0,0,0c.25-.26,.43-.59,.65-.82,.18-.19,.37-.33,.64-.33h.01s.1,0,.15,.01c.37,.05,.69,.31,.99,.73l.89,1.62h0c.24,.49,.74,1.04,1.16,1.59,.42,.55,.75,1.11,.71,1.53,0,0,0,0,0,0Zm-.07-1.18c-.12-.19-.25-.37-.39-.55-.09-.12-.18-.23-.27-.34,.18,0,.33-.03,.45-.08,.14-.06,.25-.18,.31-.32,.1-.28,0-.68-.34-1.13-.34-.45-.91-.97-1.74-1.48-.61-.38-.96-.85-1.12-1.36s-.14-1.06-.02-1.6c.24-1.04,.85-2.05,1.24-2.69,.1-.08,.04,.14-.39,.94-.39,.73-1.11,2.42-.12,3.74,.04-.96,.25-1.91,.63-2.79,.55-1.24,1.7-3.4,1.79-5.12,.05,.03,.21,.14,.28,.18,.21,.12,.37,.31,.57,.47,.21,.17,.46,.31,.85,.33h.11c.4,0,.71-.13,.97-.27,.28-.16,.51-.34,.72-.41h0c.45-.14,.81-.39,1.01-.68,.35,1.38,1.17,3.38,1.69,4.35,.28,.52,.83,1.61,1.07,2.94,.15,0,.32,.02,.5,.06,.63-1.62-.53-3.37-1.06-3.86-.21-.21-.22-.3-.12-.3,.57,.51,1.33,1.53,1.6,2.68,.12,.53,.15,1.08,.02,1.62,.07,.03,.13,.06,.2,.09,1,.49,1.38,.91,1.2,1.49-.06,0-.12,0-.17,0h-.02c.15-.46-.18-.8-1.04-1.19-.89-.39-1.6-.35-1.72,.44,0,.04-.02,.08-.02,.13-.07,.02-.13,.05-.2,.09-.42,.23-.65,.64-.77,1.15-.13,.51-.16,1.12-.2,1.82-.02,.35-.16,.82-.31,1.32-1.46,1.05-3.48,1.49-5.2,.32Zm11.22,.07c-.61,.37-1.7,.69-2.39,1.53-.6,.72-1.34,1.11-1.98,1.16-.65,.05-1.2-.22-1.53-.88h0s0,0,0,0c-.2-.39-.12-1,.05-1.65s.42-1.31,.45-1.85h0c.03-.69,.07-1.29,.19-1.76s.3-.78,.62-.96l.05-.02c.04,.6,.33,1.21,.86,1.34,.57,.15,1.4-.34,1.75-.74,.07,0,.14,0,.2,0,.31,0,.56,.01,.82,.24h0s0,0,0,0c.2,.17,.3,.49,.38,.85,.08,.36,.15,.75,.4,1.03h0c.48,.53,.63,.89,.62,1.12-.01,.23-.18,.4-.49,.58Z"/>
    </g>
  </g>
</svg>