<?xml version="1.0" encoding="UTF-8"?>
<svg id="Layer_2" data-name="Layer 2" xmlns="http://www.w3.org/2000/svg" viewBox="0 0 148 32">
  <defs>
    <style>
      .cls-1 {
        letter-spacing: -.03em;
      }

      .cls-2, .cls-3 {
        fill: #fff;
      }

      .cls-3 {
        font-family: SegoeUI-Bold, 'Segoe UI';
        font-size: 15.02px;
        font-weight: 700;
      }

      .cls-4 {
        fill: #111519;
      }

      .cls-5 {
        fill: #ee2c25;
      }
    </style>
  </defs>
  <g id="Layer_1-2" data-name="Layer 1">
    <g>
      <path class="cls-4" d="M143,0H31V32h112c2.76,0,5-2.24,5-5V5c0-2.76-2.24-5-5-5Z"/>
      <path class="cls-5" d="M31,0H5C2.24,0,0,2.24,0,5V27c0,2.76,2.24,5,5,5H31V0Z"/>
      <text class="cls-3" transform="translate(49.19 21.47)"><tspan x="0" y="0">Solid</tspan><tspan class="cls-1" x="35.44" y="0">W</tspan><tspan x="50.13" y="0">orks</tspan></text>
      <path class="cls-2" d="M24.05,12.33c-1.92-.31-5.34-.44-6.52,1.36-.9,1.39,.81,3.29,2.36,5.13,1.25,1.47,2.61,2.88,2.05,3.71-.45,.67-3.36,.67-4.36,.73-1.21,.06-2.96,.07-3.27,.23-.27,.15-.43,.6,.6,.79,.83,.15,2.79,.45,4.87,.45,2.16,0,4.44-.36,4.93-2.03,.4-1.35-.98-2.79-2.19-4.25-1.32-1.6-2.66-2.74-2.55-3.88,.09-.88,1.82-.93,4.69-.98,.6-.01,1.79-.04,1.56-.51-.2-.42-1.09-.55-2.18-.73"/>
      <path class="cls-2" d="M15.21,16.33c-1.23-.84-3.42-1.13-5.22-1.03-1.61,.08-4.37,.6-4.26,1.1,.1,.55,1.85,.38,2.65,.38,1.76,0,4.56,.11,5,1.24,.95,2.45-5.49,6.84-6.86,6.42-.62-.19,1.26-3.38,1.94-4.53,.41-.69,1.02-1.76,.5-1.84-.59-.08-1.24,.93-1.66,1.52-1.15,1.59-2.32,3.32-3.26,5.1-.29,.55-1.26,2.21-.93,2.42,.31,.2,1.78-.08,3.66-.83,5.89-2.33,8.54-5.37,9.25-7.88,.25-.88-.18-1.66-.79-2.08"/>
      <path class="cls-2" d="M10.84,5.6c-.12-.4,1.84-.91,4-1.01,2.17-.1,4.74,.34,5.22,1.77,.78,2.35-3.19,5.77-6.65,7.45-.85,.41-1.36,.52-1.58,.5-.2-.03-.24-.22-.17-.35,.12-.25,.68-.75,1.43-1.3,3.9-2.85,5.17-4.94,4.43-5.78-.47-.54-2.45-.92-4.5-.92-.56,0-2.02,.12-2.17-.36"/>
    </g>
  </g>
</svg>