<?xml version="1.0" encoding="UTF-8"?>
<svg id="Layer_2" data-name="Layer 2" xmlns="http://www.w3.org/2000/svg" viewBox="0 0 192 32">
  <defs>
    <style>
      .cls-1 {
        fill: #fff;
      }

      .cls-2 {
        fill: #111519;
      }

      .cls-3 {
        fill: #1b87c9;
      }
    </style>
  </defs>
  <g id="Layer_1-2" data-name="Layer 1">
    <g>
      <path class="cls-2" d="M187,0H31V32H187c2.76,0,5-2.24,5-5V5c0-2.76-2.24-5-5-5Z"/>
      <path class="cls-3" d="M31,0H5C2.24,0,0,2.24,0,5V27c0,2.76,2.24,5,5,5H31V0Z"/>
      <path class="cls-1" d="M26.06,8.94v14.22c0,.7-.44,1.32-1.09,1.55l-4.86,2.28,.44-5.98V11.09l-.44-5.98,4.86,2.28c.66,.23,1.09,.85,1.09,1.55Z"/>
      <path class="cls-1" d="M6.76,21.51l13.79-10.42V5.77c0-.66-.82-.97-1.25-.47L4.37,18.94c-.5,.46-.47,1.25,.06,1.67,0,0,.73,.68,.99,.87,.41,.29,.94,.32,1.34,.03Z"/>
      <path class="cls-1" d="M6.76,10.59l13.79,10.42v5.32c0,.66-.82,.97-1.25,.47L4.37,13.16c-.5-.46-.47-1.25,.06-1.67,0,0,.73-.68,.99-.87,.41-.29,.94-.32,1.34-.03Z"/>
      <path class="cls-1" d="M53.3,11.5l-3.62,10.5h-2.68l-3.57-10.5h2.55l2.19,7.31c.12,.4,.19,.74,.21,1.05h.04c.03-.33,.11-.69,.23-1.08l2.18-7.28h2.48Zm2.65,1.82c-.39,0-.71-.11-.96-.34-.25-.23-.37-.52-.37-.86s.12-.63,.37-.85,.57-.33,.96-.33,.72,.11,.96,.33c.25,.22,.37,.5,.37,.85s-.12,.64-.37,.86c-.24,.22-.56,.34-.96,.34Zm1.14,8.69h-2.31v-7.5h2.31v7.5Zm1.64-.2v-1.88c.38,.23,.76,.4,1.14,.51,.38,.11,.74,.17,1.08,.17,.41,0,.73-.06,.97-.17,.24-.11,.36-.28,.36-.51,0-.15-.05-.27-.16-.37-.11-.1-.25-.18-.42-.26-.17-.07-.35-.14-.55-.2-.2-.06-.39-.12-.58-.2-.3-.11-.56-.23-.79-.36-.22-.13-.42-.28-.57-.45-.15-.17-.27-.37-.35-.59-.08-.22-.12-.49-.12-.8,0-.42,.09-.78,.27-1.08,.19-.3,.43-.55,.73-.74,.31-.2,.66-.34,1.05-.42,.4-.09,.81-.14,1.23-.14,.33,0,.67,.03,1.01,.08,.34,.05,.68,.12,1.01,.22v1.79c-.29-.17-.61-.3-.94-.38-.33-.09-.66-.13-.98-.13-.15,0-.3,.01-.43,.04-.13,.02-.25,.06-.35,.12-.1,.05-.18,.11-.24,.2-.06,.08-.09,.17-.09,.27,0,.14,.04,.25,.13,.35,.09,.1,.2,.18,.34,.26,.14,.07,.3,.13,.47,.19,.18,.05,.35,.11,.52,.17,.31,.11,.59,.22,.83,.35,.25,.13,.46,.28,.64,.45,.18,.17,.32,.37,.41,.6,.1,.23,.15,.5,.15,.82,0,.44-.1,.83-.29,1.14-.19,.31-.45,.57-.77,.77-.32,.2-.69,.34-1.11,.42-.42,.09-.85,.14-1.3,.14-.83,0-1.59-.13-2.29-.38Zm14.4,.2h-2.31v-1.14h-.04c-.57,.88-1.34,1.33-2.29,1.33-1.74,0-2.61-1.05-2.61-3.16v-4.53h2.31v4.32c0,1.06,.42,1.59,1.26,1.59,.42,0,.75-.14,1-.43,.25-.29,.37-.69,.37-1.19v-4.29h2.31v7.5Zm8.38,0h-2.19v-1.08h-.03c-.5,.84-1.25,1.26-2.23,1.26-.73,0-1.3-.21-1.72-.62-.42-.42-.62-.97-.62-1.66,0-1.46,.86-2.29,2.59-2.52l2.04-.27c0-.82-.44-1.23-1.33-1.23s-1.74,.27-2.55,.8v-1.74c.32-.17,.76-.31,1.32-.44,.56-.13,1.07-.19,1.53-.19,2.14,0,3.21,1.07,3.21,3.2v4.48Zm-2.17-3.05v-.51l-1.36,.18c-.75,.1-1.13,.44-1.13,1.02,0,.26,.09,.48,.27,.65,.19,.17,.43,.25,.75,.25,.43,0,.79-.15,1.06-.45,.27-.3,.41-.68,.41-1.14Zm6.5,3.05h-2.31V10.9h2.31v11.1Zm6.46-.4v-2.34c.42,.36,.89,.62,1.38,.81,.5,.18,1,.26,1.51,.26,.3,0,.56-.03,.78-.08,.22-.05,.41-.13,.56-.22,.15-.1,.26-.21,.34-.34,.07-.13,.11-.27,.11-.42,0-.2-.06-.39-.17-.55-.12-.16-.28-.31-.48-.45-.2-.14-.44-.27-.72-.4-.28-.13-.58-.26-.9-.39-.82-.34-1.43-.76-1.84-1.25-.4-.49-.6-1.09-.6-1.79,0-.55,.11-1.02,.33-1.41,.22-.4,.52-.72,.89-.97,.38-.25,.82-.44,1.32-.56,.5-.12,1.03-.18,1.58-.18s1.03,.03,1.45,.1c.43,.06,.82,.16,1.17,.3v2.19c-.18-.12-.37-.23-.58-.32-.21-.09-.42-.17-.64-.23-.22-.06-.44-.11-.66-.14-.21-.03-.42-.04-.61-.04-.27,0-.51,.03-.73,.08-.22,.05-.41,.12-.56,.21s-.27,.21-.35,.34c-.08,.13-.12,.27-.12,.43,0,.18,.05,.33,.14,.48,.09,.14,.22,.27,.4,.4,.17,.12,.38,.24,.62,.37,.24,.12,.52,.24,.83,.37,.42,.18,.8,.36,1.13,.56,.34,.2,.62,.42,.86,.67,.24,.25,.42,.53,.55,.86,.13,.32,.19,.69,.19,1.11,0,.59-.11,1.08-.34,1.48-.22,.4-.52,.72-.9,.97-.38,.24-.82,.42-1.33,.53-.5,.11-1.04,.16-1.6,.16s-1.12-.05-1.65-.15c-.52-.1-.97-.24-1.35-.44Zm13.26,.31c-.34,.18-.86,.27-1.55,.27-1.63,0-2.45-.85-2.45-2.54v-3.44h-1.22v-1.71h1.22v-1.62l2.31-.66v2.28h1.68v1.71h-1.68v3.03c0,.78,.31,1.17,.93,1.17,.24,0,.5-.07,.75-.21v1.71Zm8.62,.09h-2.31v-1.14h-.04c-.57,.88-1.34,1.33-2.29,1.33-1.74,0-2.61-1.05-2.61-3.16v-4.53h2.31v4.32c0,1.06,.42,1.59,1.26,1.59,.42,0,.75-.14,1-.43,.25-.29,.37-.69,.37-1.19v-4.29h2.31v7.5Zm9.48,0h-2.32v-1.03h-.03c-.53,.81-1.3,1.22-2.32,1.22-.94,0-1.69-.33-2.26-.99-.57-.66-.86-1.59-.86-2.78s.32-2.23,.95-2.98c.63-.75,1.46-1.12,2.47-1.12,.97,0,1.64,.35,2.02,1.04h.03v-4.46h2.32v11.1Zm-2.27-3.65v-.56c0-.49-.14-.89-.42-1.22-.28-.32-.65-.48-1.11-.48-.51,0-.91,.2-1.2,.61-.29,.4-.43,.95-.43,1.66,0,.66,.14,1.17,.42,1.52,.28,.36,.66,.53,1.16,.53s.85-.19,1.14-.56c.3-.38,.45-.87,.45-1.49Zm5.57-5.04c-.39,0-.71-.11-.96-.34-.25-.23-.37-.52-.37-.86s.12-.63,.37-.85c.25-.22,.57-.33,.96-.33s.72,.11,.96,.33c.25,.22,.37,.5,.37,.85s-.12,.64-.37,.86c-.24,.22-.56,.34-.96,.34Zm1.14,8.69h-2.31v-7.5h2.31v7.5Zm5.7,.18c-1.25,0-2.23-.35-2.95-1.05-.71-.7-1.07-1.66-1.07-2.86s.37-2.21,1.11-2.91c.74-.7,1.75-1.05,3.01-1.05s2.22,.35,2.93,1.05c.71,.7,1.06,1.62,1.06,2.78,0,1.25-.37,2.23-1.1,2.95-.73,.72-1.73,1.08-3,1.08Zm.06-6.09c-.55,0-.97,.19-1.27,.56-.3,.38-.45,.91-.45,1.6,0,1.44,.58,2.16,1.74,2.16s1.66-.74,1.66-2.22c0-1.4-.56-2.1-1.68-2.1Zm18.06,5.54c-.77,.37-1.77,.56-3,.56-1.61,0-2.88-.47-3.8-1.42-.92-.95-1.38-2.21-1.38-3.79,0-1.68,.52-3.04,1.55-4.09,1.04-1.04,2.39-1.57,4.04-1.57,1.03,0,1.89,.13,2.59,.39v2.28c-.7-.42-1.5-.63-2.4-.63-.99,0-1.78,.31-2.39,.93-.61,.62-.91,1.46-.91,2.52s.29,1.83,.86,2.43c.57,.6,1.34,.9,2.31,.9s1.77-.22,2.53-.67v2.16Zm5.62,.56c-1.25,0-2.23-.35-2.95-1.05-.71-.7-1.07-1.66-1.07-2.86s.37-2.21,1.11-2.91c.74-.7,1.75-1.05,3.01-1.05s2.22,.35,2.93,1.05c.71,.7,1.06,1.62,1.06,2.78,0,1.25-.37,2.23-1.1,2.95-.73,.72-1.73,1.08-2.99,1.08Zm.06-6.09c-.55,0-.97,.19-1.27,.56-.3,.38-.45,.91-.45,1.6,0,1.44,.58,2.16,1.74,2.16s1.66-.74,1.66-2.22c0-1.4-.56-2.1-1.68-2.1Zm13.06,5.91h-2.31v-1.03h-.03c-.53,.81-1.3,1.22-2.32,1.22-.94,0-1.69-.33-2.26-.99-.57-.66-.86-1.59-.86-2.78s.32-2.23,.94-2.98c.63-.75,1.46-1.12,2.48-1.12,.97,0,1.64,.35,2.02,1.04h.03v-4.46h2.31v11.1Zm-2.27-3.65v-.56c0-.49-.14-.89-.43-1.22-.28-.32-.65-.48-1.11-.48-.51,0-.91,.2-1.2,.61-.29,.4-.43,.95-.43,1.66,0,.66,.14,1.17,.42,1.52,.28,.36,.66,.53,1.16,.53,.47,0,.85-.19,1.14-.56,.3-.38,.45-.87,.45-1.49Zm11.14,.56h-4.89c.08,1.09,.76,1.63,2.06,1.63,.83,0,1.55-.2,2.18-.59v1.67c-.69,.37-1.59,.56-2.7,.56-1.21,0-2.15-.33-2.82-1-.67-.67-1-1.61-1-2.81s.36-2.23,1.08-2.96c.72-.73,1.61-1.09,2.67-1.09s1.94,.32,2.53,.97c.6,.65,.9,1.53,.9,2.64v.97Zm-2.15-1.42c0-1.07-.43-1.61-1.3-1.61-.37,0-.69,.15-.97,.46-.27,.31-.43,.69-.49,1.15h2.76Z"/>
    </g>
  </g>
</svg>